<svg width="211" height="53" viewBox="0 0 211 53" fill="none" xmlns="http://www.w3.org/2000/svg">
<g clip-path="url(#clip0_15_328)">
<path d="M36.06 34.87C36.4 35.13 36.51 35.62 36.28 35.98C36.01 36.37 35.81 36.79 35.63 37.16C33.84 41.27 34.11 45.62 34.42 47.87C34.58 48.99 34.06 50.16 33.11 50.72C31.22 51.84 28.72 52.3 26.95 52.5H26.86C26.48 52.5 26.13 52.2 26.1 51.79C26.06 51.34 26.37 50.96 26.79 50.91C29.09 50.67 31.07 50.1 32.35 49.34C32.75 49.1 32.98 48.61 32.91 48.08C32.57 45.7 32.29 40.99 34.25 36.51C34.45 36.04 34.72 35.59 35.03 35.09C35.25 34.75 35.72 34.66 36.06 34.88V34.87ZM48.2 21.29C48.13 21.59 46.17 28.81 40.7 31.6C39.09 32.43 37.38 32.71 35.75 32.71C33.09 32.71 30.68 31.92 29.33 31.38V40.23C29.33 43.14 27.25 45.54 24.54 45.99V47.7C24.54 49.63 23.36 51.36 21.62 52.01C21.2 52.16 20.75 52.22 20.28 52.22C19.97 52.22 19.66 52.2 19.36 52.13C17.62 51.79 16.19 51.29 15.1 50.59C14.25 50.07 13.7 49.05 13.7 47.97V41.95C13.66 41.89 13.37 41.76 12.9 41.76C12.83 41.76 12.79 41.78 12.77 41.78H12.1C9.58001 41.78 5.27001 41.39 4.78001 38.76C4.36001 36.49 4.65001 32.57 4.80001 31.05C4.04001 30.75 2.62001 30.11 1.37001 29.34C0.460007 28.78 0.140007 28.08 0.0300074 27.61C-0.189993 26.52 0.370007 25.64 0.450007 25.55C4.46001 19.08 4.73001 17.24 4.73001 17.17C6.57001 1.22 19.06 0 22.85 0H23.74C23.88 0 23.99 0.02 24.07 0.02C25.92 0.02 35.36 0.38 40.02 7.73C40.26 8.09 40.17 8.61 39.8 8.84C39.44 9.08 38.95 8.99 38.73 8.6C34.51 1.93 25.77 1.59 24.07 1.59H23.71C23.47 1.57 23.2 1.57 22.86 1.57C19.4 1.57 7.96001 2.69 6.29001 17.39C6.27001 17.67 5.98001 19.68 1.76001 26.48C1.67001 26.61 1.49001 27 1.56001 27.3C1.61001 27.56 1.81001 27.81 2.16001 27.99C3.85001 29 5.88001 29.83 5.91001 29.83C6.24001 29.98 6.44001 30.3 6.40001 30.67C6.38001 30.71 5.86001 35.94 6.33001 38.47C6.53001 39.5 8.85001 40.21 12.13 40.21H12.69C12.69 40.21 12.78 40.19 12.93 40.19C14.65 40.19 15.27 41.11 15.27 41.97V47.99C15.27 48.53 15.52 49 15.92 49.26C16.83 49.8 18.11 50.27 19.67 50.61C20.2 50.7 20.7 50.68 21.12 50.52C22.26 50.09 23.04 48.96 23.04 47.71V46.06C20.23 45.7 18.04 43.25 18.04 40.25C18.04 38.39 19.51 36.87 21.3 36.87C23.09 36.87 24.56 38.39 24.56 40.25V44.41C26.41 43.98 27.8 42.29 27.8 40.25V31.4C26.46 31.94 24.03 32.73 21.37 32.73C19.74 32.73 18.02 32.45 16.42 31.62C10.95 28.81 9.01001 21.61 8.92001 21.31C8.83001 20.95 8.96001 20.6 9.26001 20.41C9.42001 20.32 12.05 18.78 15.33 18.29C15.06 14.86 15.78 12.01 15.84 11.82C15.93 11.46 16.26 11.2 16.6 11.24C16.82 11.26 20.28 11.35 23.58 13.13C25.27 9.6 27.91 7.41 28.09 7.28C28.36 7.04 28.76 7.04 29.03 7.28C29.19 7.41 31.86 9.62 33.54 13.13C36.82 11.35 40.3 11.25 40.52 11.24C40.86 11.22 41.19 11.48 41.28 11.82C41.33 12.01 42.04 14.88 41.79 18.27C45.07 18.8 47.7 20.33 47.86 20.43C48.17 20.56 48.29 20.92 48.2 21.27V21.29ZM23.02 44.45V40.27C23.02 39.28 22.24 38.47 21.28 38.47C20.32 38.47 19.56 39.28 19.56 40.27C19.56 42.37 21.05 44.11 23.02 44.45ZM34.15 14.58C34.6 15.86 34.89 17.24 34.89 18.74C34.89 23.09 32.48 26.84 30.76 28.94C33.04 28.32 36.51 26.93 38.45 23.88C40.99 19.94 40.26 14.65 39.92 12.84C38.81 12.95 36.4 13.35 34.16 14.58H34.15ZM23.76 18.74C23.76 23.54 27.22 27.68 28.56 29.09C29.9 27.67 33.36 23.54 33.36 18.74C33.36 13.94 29.86 10.17 28.56 8.92C27.25 10.18 23.76 13.98 23.76 18.74ZM18.65 23.9C20.61 26.97 24.07 28.36 26.35 28.98C24.63 26.86 22.22 23.13 22.22 18.76C22.22 17.28 22.51 15.87 22.96 14.6C20.69 13.34 18.28 12.97 17.18 12.86C16.84 14.66 16.13 19.95 18.65 23.9ZM25.7 30.44C23.18 29.73 19.52 28.17 17.36 24.78C16.36 23.22 15.82 21.5 15.53 19.87C13.36 20.21 11.45 21.05 10.56 21.5C11.14 23.23 13.1 28.16 17.08 30.2C20 31.68 23.42 31.12 25.69 30.44H25.7ZM46.53 21.48C45.64 21.03 43.74 20.21 41.56 19.85C41.27 21.5 40.73 23.21 39.73 24.76C37.56 28.15 33.89 29.75 31.37 30.42C33.64 31.11 37.08 31.68 40 30.16C43.99 28.14 45.94 23.2 46.52 21.48H46.53Z" fill="#A9A9A9"/>
<path d="M72.84 24.25C76.58 24.25 78.92 26.19 78.92 29.33C78.92 32.47 76.58 34.39 72.84 34.39H70.02V38.25H66.78V24.25H72.84ZM72.66 31.75C74.64 31.75 75.64 30.85 75.64 29.33C75.64 27.81 74.64 26.89 72.66 26.89H70.02V31.75H72.66ZM84.83 38.41C83.01 38.41 81.17 37.91 80.17 37.25L81.21 35.01C82.17 35.63 83.63 36.05 84.95 36.05C86.39 36.05 86.93 35.67 86.93 35.07C86.93 33.31 80.43 35.11 80.43 30.81C80.43 28.77 82.27 27.33 85.41 27.33C86.89 27.33 88.53 27.67 89.55 28.27L88.51 30.49C87.45 29.89 86.39 29.69 85.41 29.69C84.01 29.69 83.41 30.13 83.41 30.69C83.41 32.53 89.91 30.75 89.91 34.99C89.91 36.99 88.05 38.41 84.83 38.41ZM93.4 25.99C92.24 25.99 91.46 25.23 91.46 24.25C91.46 23.27 92.24 22.51 93.4 22.51C94.56 22.51 95.34 23.23 95.34 24.19C95.34 25.23 94.56 25.99 93.4 25.99ZM91.84 38.25V27.49H94.96V38.25H91.84ZM103.06 38.41C99.56 38.41 97.06 36.11 97.06 32.87C97.06 29.63 99.56 27.33 103.06 27.33C105.32 27.33 107.1 28.31 107.88 30.07L105.46 31.37C104.88 30.35 104.02 29.89 103.04 29.89C101.46 29.89 100.22 30.99 100.22 32.87C100.22 34.75 101.46 35.85 103.04 35.85C104.02 35.85 104.88 35.41 105.46 34.37L107.88 35.69C107.1 37.41 105.32 38.41 103.06 38.41ZM116.14 27.33C118.68 27.33 120.6 28.81 120.6 32.09V38.25H117.48V32.57C117.48 30.83 116.68 30.03 115.3 30.03C113.8 30.03 112.72 30.95 112.72 32.93V38.25H109.6V23.41H112.72V28.61C113.56 27.77 114.76 27.33 116.14 27.33ZM128.67 38.41C125.25 38.41 122.75 36.11 122.75 32.87C122.75 29.63 125.25 27.33 128.67 27.33C132.09 27.33 134.57 29.63 134.57 32.87C134.57 36.11 132.09 38.41 128.67 38.41ZM128.67 35.85C130.23 35.85 131.41 34.73 131.41 32.87C131.41 31.01 130.23 29.89 128.67 29.89C127.11 29.89 125.91 31.01 125.91 32.87C125.91 34.73 127.11 35.85 128.67 35.85Z" fill="#A9A9A9"/>
<path d="M152.64 38.25H149.6L149.58 29.85L145.46 36.77H144L139.9 30.03V38.25H136.86V24.25H139.54L144.78 32.95L149.94 24.25H152.6L152.64 38.25ZM166.42 38.25L165.18 35.25H158.68L157.44 38.25H154.12L160.36 24.25H163.56L169.82 38.25H166.42ZM159.72 32.79H164.16L161.94 27.43L159.72 32.79ZM173.47 38.25V26.89H168.99V24.25H181.19V26.89H176.71V38.25H173.47ZM189.44 38.49C185.1 38.49 181.86 35.47 181.86 31.25C181.86 27.03 185.1 24.01 189.46 24.01C191.88 24.01 193.9 24.89 195.22 26.49L193.14 28.41C192.2 27.33 191.02 26.77 189.62 26.77C187 26.77 185.14 28.61 185.14 31.25C185.14 33.89 187 35.73 189.62 35.73C191.02 35.73 192.2 35.17 193.14 34.07L195.22 35.99C193.9 37.61 191.88 38.49 189.44 38.49ZM207.01 24.25H210.25V38.25H207.01V32.51H200.65V38.25H197.41V24.25H200.65V29.77H207.01V24.25Z" fill="#383838"/>
<path d="M174.62 22.25C176.553 22.25 178.12 20.683 178.12 18.75C178.12 16.817 176.553 15.25 174.62 15.25C172.687 15.25 171.12 16.817 171.12 18.75C171.12 20.683 172.687 22.25 174.62 22.25Z" fill="#BEDEBA"/>
</g>
<defs>
<clipPath id="clip0_15_328">
<rect width="210.24" height="52.5" fill="white"/>
</clipPath>
</defs>
</svg>
