<svg width="31" height="36" viewBox="0 0 31 36" fill="none" xmlns="http://www.w3.org/2000/svg">
<path d="M23.1815 23.9109C23.3999 24.0891 23.4706 24.4251 23.3228 24.672C23.1494 24.9394 23.0209 25.2274 22.9052 25.4811C21.7552 28.2994 21.9286 31.2823 22.1278 32.8251C22.2306 33.5931 21.8965 34.3954 21.2862 34.7794C20.0719 35.5474 18.4656 35.8629 17.3284 36H17.2706C17.0265 36 16.8016 35.7943 16.7823 35.5131C16.7566 35.2046 16.9558 34.944 17.2256 34.9097C18.7034 34.7451 19.9755 34.3543 20.7979 33.8331C21.0549 33.6686 21.2026 33.3326 21.1577 32.9691C20.9392 31.3371 20.7593 28.1074 22.0186 25.0354C22.1471 24.7131 22.3206 24.4046 22.5197 24.0617C22.6611 23.8286 22.963 23.7669 23.1815 23.9177V23.9109ZM30.9813 14.5989C30.9363 14.8046 29.677 19.7554 26.1626 21.6686C25.1282 22.2377 24.0296 22.4297 22.9823 22.4297C21.2733 22.4297 19.7249 21.888 18.8576 21.5177V27.5863C18.8576 29.5817 17.5212 31.2274 15.78 31.536V32.7086C15.78 34.032 15.0219 35.2183 13.904 35.664C13.6341 35.7669 13.345 35.808 13.043 35.808C12.8439 35.808 12.6447 35.7943 12.452 35.7463C11.334 35.5131 10.4153 35.1703 9.71496 34.6903C9.16885 34.3337 8.81548 33.6343 8.81548 32.8937V28.7657C8.78978 28.7246 8.60346 28.6354 8.30149 28.6354C8.25652 28.6354 8.23082 28.6491 8.21797 28.6491H7.7875C6.16843 28.6491 3.39931 28.3817 3.08449 26.5783C2.81465 25.0217 3.00097 22.3337 3.09734 21.2914C2.60905 21.0857 1.69672 20.6469 0.893614 20.1189C0.30895 19.7349 0.103354 19.2549 0.0326808 18.9326C-0.108666 18.1851 0.251126 17.5817 0.302525 17.52C2.8789 13.0834 3.05237 11.8217 3.05237 11.7737C4.23455 0.836572 12.2592 0 14.6942 0H15.2661C15.356 0 15.4267 0.0137143 15.4781 0.0137143C16.6667 0.0137143 22.7318 0.260572 25.7257 5.30057C25.8799 5.54743 25.8221 5.904 25.5844 6.06171C25.3531 6.22629 25.0383 6.16457 24.8969 5.89714C22.1856 1.32343 16.5703 1.09029 15.4781 1.09029H15.2468C15.0926 1.07657 14.9191 1.07657 14.7007 1.07657C12.4777 1.07657 5.1276 1.84457 4.05465 11.9246C4.0418 12.1166 3.85548 13.4949 1.14418 18.1577C1.08636 18.2469 0.970712 18.5143 1.01569 18.72C1.04781 18.8983 1.17631 19.0697 1.40118 19.1931C2.48698 19.8857 3.79123 20.4549 3.8105 20.4549C4.02253 20.5577 4.15102 20.7771 4.12532 21.0309C4.11247 21.0583 3.77838 24.6446 4.08035 26.3794C4.20885 27.0857 5.69942 27.5726 7.80678 27.5726H8.16657C8.16657 27.5726 8.22439 27.5589 8.32076 27.5589C9.42584 27.5589 9.82418 28.1897 9.82418 28.7794V32.9074C9.82418 33.2777 9.98481 33.6 10.2418 33.7783C10.8265 34.1486 11.6488 34.4709 12.6511 34.704C12.9916 34.7657 13.3129 34.752 13.5827 34.6423C14.3152 34.3474 14.8163 33.5726 14.8163 32.7154V31.584C13.0109 31.3371 11.6039 29.6571 11.6039 27.6C11.6039 26.3246 12.5483 25.2823 13.6984 25.2823C14.8484 25.2823 15.7929 26.3246 15.7929 27.6V30.4526C16.9815 30.1577 17.8745 28.9989 17.8745 27.6V21.5314C17.0136 21.9017 15.4524 22.4434 13.7434 22.4434C12.6961 22.4434 11.591 22.2514 10.563 21.6823C7.04864 19.7554 5.80222 14.8183 5.74439 14.6126C5.68657 14.3657 5.77009 14.1257 5.96284 13.9954C6.06564 13.9337 7.75538 12.8777 9.86273 12.5417C9.68926 10.1897 10.1519 8.23543 10.1904 8.10514C10.2482 7.85829 10.4602 7.68 10.6787 7.70743C10.82 7.72114 13.043 7.78286 15.1633 9.00343C16.2491 6.58286 17.9452 5.08114 18.0609 4.992C18.2343 4.82743 18.4913 4.82743 18.6648 4.992C18.7676 5.08114 20.483 6.59657 21.5624 9.00343C23.6698 7.78286 25.9056 7.71429 26.047 7.70743C26.2654 7.69371 26.4774 7.872 26.5353 8.10514C26.5674 8.23543 27.0236 10.2034 26.8629 12.528C28.9703 12.8914 30.66 13.9406 30.7628 14.0091C30.962 14.0983 31.0391 14.3451 30.9813 14.5851V14.5989ZM14.8035 30.48V27.6137C14.8035 26.9349 14.3023 26.3794 13.6855 26.3794C13.0687 26.3794 12.5805 26.9349 12.5805 27.6137C12.5805 29.0537 13.5378 30.2469 14.8035 30.48ZM21.9543 9.99771C22.2435 10.8754 22.4298 11.8217 22.4298 12.8503C22.4298 15.8331 20.8814 18.4046 19.7763 19.8446C21.2412 19.4194 23.4706 18.4663 24.717 16.3749C26.349 13.6731 25.8799 10.0457 25.6615 8.80457C24.9483 8.88 23.3999 9.15429 21.9608 9.99771H21.9543ZM15.2789 12.8503C15.2789 16.1417 17.5019 18.9806 18.3628 19.9474C19.2238 18.9737 21.4468 16.1417 21.4468 12.8503C21.4468 9.55886 19.1981 6.97371 18.3628 6.11657C17.5212 6.98057 15.2789 9.58629 15.2789 12.8503ZM11.9958 16.3886C13.2551 18.4937 15.4781 19.4469 16.9429 19.872C15.8379 18.4183 14.2895 15.8606 14.2895 12.864C14.2895 11.8491 14.4758 10.8823 14.7649 10.0114C13.3065 9.14743 11.7581 8.89371 11.0513 8.81829C10.8329 10.0526 10.3767 13.68 11.9958 16.3886ZM16.5253 20.8731C14.9063 20.3863 12.5548 19.3166 11.167 16.992C10.5245 15.9223 10.1776 14.7429 9.99123 13.6251C8.59703 13.8583 7.36988 14.4343 6.79807 14.7429C7.17071 15.9291 8.42999 19.3097 10.9871 20.7086C12.8631 21.7234 15.0605 21.3394 16.5189 20.8731H16.5253ZM29.9083 14.7291C29.3365 14.4206 28.1158 13.8583 26.7152 13.6114C26.5289 14.7429 26.1819 15.9154 25.5394 16.9783C24.1452 19.3029 21.7873 20.4 20.1682 20.8594C21.6267 21.3326 23.8368 21.7234 25.7129 20.6811C28.2764 19.296 29.5293 15.9086 29.9019 14.7291H29.9083Z" fill="#1E1E1E"/>
</svg>
