<svg width="136" height="136" viewBox="0 0 136 136" fill="none" xmlns="http://www.w3.org/2000/svg">
<circle cx="68" cy="68" r="68" fill="#EFFFED"/>
<g clip-path="url(#clip0_107_265)">
<path d="M51.6229 31.9662C51.5441 31.9691 51.4654 31.9747 51.3894 31.9859C50.2391 32.1181 49.3757 33.1025 49.3982 34.2613V36.3003H53.8982V34.2613C53.9094 33.6538 53.6732 33.0659 53.2457 32.6328C52.8154 32.1997 52.2303 31.9606 51.6229 31.9662ZM53.8982 36.3003L53.8982 39.8778C53.9657 42.9462 49.3307 42.9462 49.3982 39.8778L49.3982 36.3003L45.0614 36.3003C40.8932 36.3003 37.4733 39.7259 37.4733 43.8941V49.5417H98.53V43.8941C98.53 39.726 95.11 36.3003 90.9419 36.3003H86.5882V39.8778C86.6557 42.9462 82.0206 42.9462 82.0882 39.8778V36.3003L53.8982 36.3003ZM82.0848 36.3003H86.5848V34.2612C86.596 33.6509 86.3598 33.0631 85.9323 32.6328C85.502 32.1997 84.9169 31.9606 84.3067 31.9663C84.2307 31.9691 84.1548 31.9747 84.0788 31.9859C82.9257 32.1153 82.0623 33.1025 82.0848 34.2613L82.0848 36.3003ZM37.47 54.0418V96.4462C37.47 100.614 40.89 104.034 45.0581 104.034H90.9386C95.1068 104.034 98.5267 100.614 98.5267 96.4462V54.0418H37.47ZM68.0167 61.4643C77.5711 61.4643 85.3586 69.2633 85.3586 78.8177C85.3586 88.3721 77.574 96.1596 68.0167 96.1596C58.4623 96.1596 50.6582 88.375 50.6582 78.8177C50.6582 69.2633 58.463 61.4643 68.0167 61.4643ZM68.0167 65.9643C60.8927 65.9643 55.1582 71.6961 55.1582 78.8177C55.1582 85.9418 60.8929 91.6596 68.0167 91.6596C75.1407 91.6596 80.8529 85.9418 80.8529 78.8177C80.8529 71.6937 75.1407 65.9643 68.0167 65.9643ZM67.2517 69.8483C68.5229 69.8343 69.5523 70.8721 69.527 72.1433V79.8156L73.3802 81.8603C76.038 83.2581 73.9399 87.2435 71.2848 85.8456L66.2224 83.1738C65.4827 82.7829 65.0214 82.015 65.0214 81.1798V72.143C64.9989 70.8999 65.989 69.8762 67.232 69.8536C67.2377 69.8508 67.2433 69.8508 67.2489 69.848L67.2517 69.8483Z" fill="#B0DEAA"/>
</g>
<defs>
<clipPath id="clip0_107_265">
<rect width="72" height="72" fill="white" transform="translate(32 32)"/>
</clipPath>
</defs>
</svg>
