<svg width="136" height="136" viewBox="0 0 136 136" fill="none" xmlns="http://www.w3.org/2000/svg">
<circle cx="68" cy="68" r="68" fill="#EFFFED"/>
<path d="M54.7729 79.4386C54.7729 83.6349 51.3725 87.0325 47.179 87.0325C42.9855 87.0325 39.5852 83.6349 39.5852 79.4386C39.5852 75.2452 42.9855 71.8448 47.179 71.8448C51.3725 71.8448 54.7729 75.2451 54.7729 79.4386Z" fill="#B0DEAA"/>
<path d="M96.4148 79.4386C96.4148 83.6349 93.0144 87.0325 88.821 87.0325C84.6275 87.0325 81.2271 83.6349 81.2271 79.4386C81.2271 75.2452 84.6275 71.8448 88.821 71.8448C93.0144 71.8448 96.4148 75.2451 96.4148 79.4386Z" fill="#B0DEAA"/>
<path d="M88.1096 68.5933C88.2643 68.8351 88.5315 68.9814 88.8212 68.9814C89.108 68.9814 89.3752 68.8351 89.5327 68.5933L93.1271 62.9823H93.8781C98.0659 62.9823 101.472 59.5763 101.472 55.3885V46.4331C101.472 42.2453 98.0659 38.8393 93.8781 38.8393H72.8713C72.5198 38.8393 72.1738 38.873 71.8335 38.918C72.202 39.9193 72.4157 40.9936 72.4157 42.1214V51.0768C72.4157 54.9665 70.0082 58.2962 66.6107 59.6772C67.9804 61.6712 70.2754 62.9819 72.8713 62.9819H84.5181L88.1124 68.5928L88.1096 68.5933Z" fill="#B0DEAA"/>
<path d="M45.0356 46.6023C45.0356 48.4783 42.2231 48.4783 42.2231 46.6023C42.2231 44.7292 45.0356 44.7292 45.0356 46.6023Z" fill="#B0DEAA"/>
<path d="M54.0356 46.6023C54.0356 48.4783 51.2231 48.4783 51.2231 46.6023C51.2231 44.7292 54.0356 44.7292 54.0356 46.6023Z" fill="#B0DEAA"/>
<path d="M63.0356 46.6023C63.0356 48.4783 60.2231 48.4783 60.2231 46.6023C60.2231 44.7292 63.0356 44.7292 63.0356 46.6023Z" fill="#B0DEAA"/>
<path d="M70.7253 51.08V42.1246C70.7253 37.9368 67.3193 34.5308 63.1315 34.5308H42.1247C37.9369 34.5308 34.5309 37.9368 34.5309 42.1246V51.08C34.5281 53.1303 35.3353 55.0568 36.8034 56.4968C38.159 57.8272 39.914 58.5893 41.7899 58.6681L46.4671 65.9696C46.6218 66.2115 46.889 66.3577 47.1787 66.3577C47.4656 66.3577 47.7327 66.2115 47.8902 65.9696L52.5646 58.671H63.1314C67.3192 58.671 70.7252 55.265 70.7252 51.0771L70.7253 51.08ZM43.6267 49.6962C41.9195 49.6962 40.5329 48.3096 40.5329 46.6025C40.5329 44.8953 41.9195 43.5087 43.6267 43.5087C45.3338 43.5087 46.7204 44.8953 46.7204 46.6025C46.7204 48.3096 45.3338 49.6962 43.6267 49.6962ZM52.6267 49.6962C50.9195 49.6962 49.5329 48.3096 49.5329 46.6025C49.5329 44.8953 50.9195 43.5087 52.6267 43.5087C54.3338 43.5087 55.7204 44.8953 55.7204 46.6025C55.7204 48.3096 54.3338 49.6962 52.6267 49.6962ZM61.6266 49.6962C59.9195 49.6962 58.5329 48.3096 58.5329 46.6025C58.5329 44.8953 59.9195 43.5087 61.6266 43.5087C63.3338 43.5087 64.7204 44.8953 64.7204 46.6025C64.7204 48.3096 63.3338 49.6962 61.6266 49.6962Z" fill="#B0DEAA"/>
<path d="M58.4154 89.4733C57.926 87.3864 56.275 85.8451 54.236 85.4514C52.5316 87.4483 50.0032 88.7196 47.1794 88.7196C44.3556 88.7196 41.8272 87.4483 40.1228 85.4514C38.0866 85.8452 36.4328 87.3836 35.9434 89.4733L34.6722 94.9098C34.2981 96.5074 34.6694 98.1611 35.6903 99.4464C36.7085 100.732 38.2357 101.469 39.8782 101.469H54.4834C56.1258 101.469 57.6502 100.732 58.6712 99.4464C59.6893 98.1611 60.0606 96.5074 59.6893 94.9098L58.4181 89.4733H58.4154Z" fill="#B0DEAA"/>
<path d="M101.328 94.9071L100.057 89.4705C99.5674 87.3837 97.9165 85.8424 95.8774 85.4487C94.173 87.4455 91.6446 88.7169 88.8209 88.7169C85.9971 88.7169 83.4659 87.4456 81.7643 85.4487C79.7252 85.8425 78.0743 87.3809 77.5849 89.4705L76.3137 94.9071C75.9396 96.5047 76.3109 98.1584 77.329 99.4437C78.3472 100.729 79.8744 101.466 81.5168 101.466H96.122C97.7617 101.466 99.2889 100.729 100.307 99.4437C101.328 98.1584 101.699 96.5047 101.325 94.9071H101.328Z" fill="#B0DEAA"/>
</svg>
