<svg width="136" height="136" viewBox="0 0 136 136" fill="none" xmlns="http://www.w3.org/2000/svg">
<circle cx="68" cy="68" r="68" fill="#EFFFED"/>
<g clip-path="url(#clip0_107_264)">
<line x1="103" y1="60.5" x2="860" y2="60.5" stroke="black"/>
<path d="M73.2142 88.0866C73.2114 92.01 74.7611 95.7762 77.5258 98.5575C73.1271 100.045 68.5258 100.841 63.8854 100.914C63.832 100.92 63.7757 100.92 63.7223 100.914H63.4523C54.039 100.914 44.7294 97.739 35.5271 91.3888C35.1952 91.161 35.0265 90.7588 35.0968 90.3622C35.873 85.6766 38.663 81.5703 42.7273 79.118C46.1389 77.0845 49.7052 75.3239 53.3949 73.853L53.7858 73.2061C55.2005 74.3114 56.7924 75.172 58.4968 75.7457C59.9002 80.0882 61.6411 84.3123 63.6999 88.3853C65.7671 84.2931 67.5109 80.0463 68.9143 75.6838C70.5877 75.1044 72.1487 74.2466 73.5353 73.1442L73.9459 73.8332C75.2003 74.2748 77.0931 75.0651 79.3149 76.1254C75.4927 78.9154 73.2284 83.3562 73.2142 88.0866Z" fill="#B0DEAA"/>
<path d="M80.0233 54.0723C79.3764 53.4311 78.5242 53.0345 77.6157 52.9529V45.5362C77.6186 45.0018 77.5764 44.4674 77.4948 43.9416C77.4948 43.6941 77.402 43.4578 77.3514 43.2103H77.3486C76.8226 40.9659 75.5148 38.9831 73.6558 37.6163L73.4617 37.4728C72.6713 36.9357 71.8107 36.5166 70.8995 36.2269C66.1885 34.7363 61.132 34.7363 56.4181 36.2269C55.7572 36.4434 55.1188 36.7247 54.5141 37.0706C51.4879 38.82 49.6344 42.06 49.6597 45.5558V53.023C47.7331 53.352 46.3213 55.0226 46.3213 56.9774C46.3213 58.9349 47.7331 60.6055 49.6597 60.9345C49.7638 64.5683 51.2797 68.0192 53.8813 70.5559C56.4857 73.0928 59.9731 74.5187 63.607 74.5299H64.2961C67.8005 74.3162 71.0995 72.8087 73.5517 70.2999C76.0042 67.7912 77.4386 64.4612 77.5764 60.9543C79.1288 60.8053 80.4564 59.7731 80.9823 58.3022C81.5055 56.8312 81.1314 55.1915 80.0233 54.0946L80.0233 54.0723ZM75.5599 60.0685C75.6161 63.1848 74.4742 66.2054 72.3677 68.5005C70.2639 70.7983 67.3558 72.1989 64.2453 72.4127C57.9003 72.7305 51.7267 67.9492 51.7267 59.894V52.3844L54.9667 48.3513V48.3541C55.6923 47.44 56.7949 46.9113 57.9621 46.9141H69.3582C70.5254 46.9141 71.6279 47.4485 72.3507 48.3653L75.5597 52.345L75.5599 60.0685Z" fill="#B0DEAA"/>
<path d="M97.1485 79.0247C94.3303 76.215 90.3647 74.8762 86.419 75.4022C82.4731 75.9253 78.9966 78.2568 77.0115 81.705C75.0259 85.156 74.7559 89.3327 76.2831 93.0083C77.8103 96.6839 80.9603 99.4405 84.805 100.467C88.6526 101.493 92.756 100.675 95.9117 98.2477C99.0674 95.8233 100.918 92.0687 100.915 88.0864C100.921 84.686 99.5652 81.4235 97.1492 79.0244L97.1485 79.0247ZM93.796 84.5906C93.5963 84.5681 93.3938 84.63 93.242 84.7622C93.0873 84.8972 92.9973 85.0884 92.9945 85.2909V86.1965V86.1937C92.9832 88.5113 91.3745 90.5109 89.116 91.02V93.6215C89.6842 93.6215 90.1454 94.0828 90.1454 94.6509C90.1454 95.2191 89.6842 95.6775 89.116 95.6775H87.1107C86.5426 95.6775 86.0813 95.2191 86.0813 94.6509C86.0813 94.0828 86.5426 93.6215 87.1107 93.6215V91.0397C84.8045 90.57 83.1479 88.5478 83.1395 86.1937V85.2881V85.2909C83.1423 85.1025 83.0691 84.9253 82.9398 84.7931C82.8076 84.6609 82.6276 84.5878 82.442 84.5906C81.8738 84.5906 81.4126 84.1294 81.4126 83.5612C81.4126 82.9931 81.8738 82.5347 82.442 82.5347C83.9635 82.5347 85.1982 83.7665 85.1982 85.2909V86.1965V86.1937C85.2038 87.4087 85.9688 88.4887 87.1107 88.8993V84.5793C86.5425 84.5793 86.0813 84.1209 86.0813 83.5527C86.0813 82.9846 86.5425 82.5233 87.1107 82.5233H89.0766H89.0738C89.3466 82.5233 89.611 82.6302 89.8022 82.8243C89.9963 83.0183 90.1032 83.2799 90.1032 83.5527C90.1032 83.8255 89.9963 84.0871 89.8022 84.2783C89.611 84.4724 89.3466 84.5793 89.0738 84.5793V88.8683C90.1735 88.4352 90.8935 87.3749 90.8963 86.1936V85.288V85.2908C90.8963 84.5484 91.1944 83.8368 91.7259 83.3193C92.2547 82.799 92.9719 82.5177 93.7143 82.5346C93.9956 82.5205 94.2712 82.6218 94.4737 82.8159C94.6791 83.0099 94.7944 83.2799 94.7944 83.5612C94.7944 84.1181 94.3529 84.5737 93.796 84.5906Z" fill="#B0DEAA"/>
</g>
<defs>
<clipPath id="clip0_107_264">
<rect width="72" height="72" fill="white" transform="translate(32 32)"/>
</clipPath>
</defs>
</svg>
