<svg width="134" height="134" viewBox="0 0 134 134" fill="none" xmlns="http://www.w3.org/2000/svg">
<g id="np_idea_3937173_000000 1">
<path id="Vector" fill-rule="evenodd" clip-rule="evenodd" d="M27.9012 53.9533L28.672 44.1408C30.5366 20.3435 50.396 1.97946 74.2654 1.97946H76.0571C99.4265 1.97946 118.693 20.3075 119.854 43.6515C120.776 62.1781 113.599 80.1875 100.193 93.0008L96.2453 96.7716V126.173C96.2453 129.032 93.9275 131.35 91.0682 131.35H43.5162C40.6568 131.35 38.3391 129.032 38.3391 126.173V114.126L35.6412 114.689C32.7402 115.298 29.7194 114.558 27.4224 112.683C25.1255 110.808 23.8027 107.996 23.8183 105.032L23.9277 86.1989L20.4798 85.9177C17.761 85.6937 15.3601 84.0531 14.1673 81.5999C12.9746 79.1469 13.1621 76.2458 14.6673 73.9697L27.8913 53.9483L27.9012 53.9533ZM43.5212 107.76V126.176H91.0732V94.504L91.1461 94.4884C91.1461 94.4884 93.4325 92.3061 96.6201 89.2592C108.943 77.4832 115.537 60.9312 114.688 43.9045C113.662 23.3165 96.6721 7.15517 76.0628 7.15517H74.2711C53.0991 7.15517 35.4897 23.4365 33.8337 44.5458C33.3285 51.0042 32.9587 55.6917 32.9587 55.6917C32.9587 55.6917 23.5213 69.973 18.9947 76.8277C18.4999 77.5777 18.4374 78.536 18.8281 79.3433C19.2239 80.1506 20.0156 80.6922 20.9114 80.7652C24.5365 81.0621 29.1354 81.4371 29.1354 81.4371C29.1354 81.4371 29.0521 96.5197 29 105.068C28.9896 106.469 29.6198 107.797 30.7031 108.682C31.7864 109.568 33.2135 109.917 34.5833 109.63C38.6823 108.771 43.5156 107.76 43.5156 107.76L43.5212 107.76ZM74.7292 14.9373C56.8546 14.9373 42.3386 29.4533 42.3386 47.328C42.3386 65.2027 56.8492 79.7187 74.7292 79.7187C92.6039 79.7187 107.115 65.208 107.115 47.328C107.115 29.4533 92.6039 14.9373 74.7292 14.9373ZM72.1407 20.2343C58.334 21.5363 47.5154 33.1769 47.5154 47.3223C47.5154 61.4676 58.3331 73.1089 72.1407 74.4103V63.03C72.1407 61.6029 73.2969 60.4415 74.7292 60.4415H81.1147C81.5834 60.4415 82.0314 60.254 82.3647 59.9258C82.698 59.5925 82.8803 59.1446 82.8803 58.6758V58.6706C82.8803 58.2019 82.6928 57.754 82.3647 57.4206C82.0314 57.0873 81.5834 56.905 81.1147 56.905H74.7292C73.297 56.905 72.1407 55.7436 72.1407 54.3165V42.7853H68.3438C66.5 42.7853 64.7396 42.0561 63.4375 40.7541C62.1354 39.452 61.4011 37.6863 61.4011 35.8426V35.8374C61.4011 33.9989 62.1303 32.2333 63.4375 30.9311C64.7396 29.629 66.5052 28.8999 68.3438 28.8999H72.1407V20.2343ZM77.3178 20.2343V31.4843C77.3178 32.9113 76.1563 34.0728 74.7292 34.0728H68.3438C67.875 34.0728 67.4271 34.2603 67.0938 34.5884C66.7604 34.9218 66.5781 35.3697 66.5781 35.8384V35.8436C66.5781 36.3124 66.7656 36.7603 67.0938 37.0936C67.4271 37.427 67.875 37.6093 68.3438 37.6093H74.7292C76.1563 37.6093 77.3178 38.7655 77.3178 40.1978V51.729H81.1147C82.9584 51.729 84.724 52.4582 86.0262 53.7602C87.3282 55.0623 88.0574 56.8279 88.0574 58.6717V58.6769C88.0574 60.5206 87.3282 62.2862 86.0262 63.5883C84.7241 64.8904 82.9584 65.6195 81.1147 65.6195H77.3178V74.4165C91.1244 73.1144 101.943 61.4738 101.943 47.3285C101.943 33.1831 91.1254 21.5418 77.3178 20.2405V20.2343Z" fill="#B0A0DF"/>
</g>
</svg>
