<svg xmlns="http://www.w3.org/2000/svg" width="23" height="23" viewBox="0 0 23 23" fill="none">
  <path d="M20.5125 22.7062H15.6C14.4 22.7062 13.3875 21.7313 13.3875 20.4938V16.5187C13.3875 16.2188 13.1625 15.9938 12.8625 15.9938H9.8625C9.5625 15.9938 9.3375 16.2188 9.3375 16.5187V20.4938C9.3375 21.7313 8.3625 22.7062 7.125 22.7062H2.2125C1.0125 22.7062 0 21.7313 0 20.4938V7.85625C0 7.21875 0.3 6.65625 0.825 6.31875L10.3875 0.28125C10.9875 -0.09375 11.7375 -0.09375 12.3 0.28125L21.8625 6.35625C22.3875 6.69375 22.6875 7.25625 22.6875 7.89375V20.4938C22.725 21.6938 21.7125 22.7062 20.5125 22.7062ZM9.8625 14.3063H12.8625C14.1 14.3063 15.075 15.2812 15.075 16.5187V20.4938C15.075 20.7938 15.3 21.0187 15.6 21.0187H20.5125C20.8125 21.0187 21.0375 20.7938 21.0375 20.4938V7.85625C21.0375 7.81875 21 7.78125 21 7.74375L11.4 1.70625C11.3625 1.66875 11.325 1.66875 11.2875 1.70625L1.7625 7.74375C1.725 7.78125 1.6875 7.81875 1.6875 7.85625V20.4938C1.6875 20.7938 1.9125 21.0187 2.2125 21.0187H7.125C7.425 21.0187 7.65 20.7938 7.65 20.4938V16.5187C7.65 15.3187 8.625 14.3063 9.8625 14.3063Z" fill="#383838"/>
</svg>