<svg width="64" height="64" viewBox="0 0 64 64" fill="none" xmlns="http://www.w3.org/2000/svg">
<g id="np_certification_717313_000000 1">
<path id="Vector" d="M4.44446 5.12V32V58.88H59.5556V32V5.12H4.44446ZM32 10.24C35.8875 10.24 39.04 13.3925 39.04 17.28C39.04 21.1675 35.8875 24.32 32 24.32C28.1125 24.32 24.96 21.1675 24.96 17.28C24.96 13.3925 28.1125 10.24 32 10.24ZM27.52 24.2803C28.8175 25.1153 30.35 25.6003 32 25.6003C33.65 25.6003 35.1825 25.1153 36.48 24.2803V33.28L32 29.44L27.52 33.28V24.2803ZM19.2 38.4H44.8C45.5075 38.4 46.08 38.9725 46.08 39.68C46.08 40.3875 45.5075 40.96 44.8 40.96H19.2C18.4925 40.96 17.92 40.3875 17.92 39.68C17.92 38.9725 18.4925 38.4 19.2 38.4ZM19.2 44.16H44.8C45.5075 44.16 46.08 44.7325 46.08 45.44C46.08 46.1475 45.5075 46.72 44.8 46.72H19.2C18.4925 46.72 17.92 46.1475 17.92 45.44C17.92 44.7325 18.4925 44.16 19.2 44.16ZM19.2 49.92H44.8C45.5075 49.92 46.08 50.4925 46.08 51.2C46.08 51.9075 45.5075 52.48 44.8 52.48H19.2C18.4925 52.48 17.92 51.9075 17.92 51.2C17.92 50.4925 18.4925 49.92 19.2 49.92Z" fill="#B0A0DF"/>
</g>
</svg>
