<svg width="64" height="64" viewBox="0 0 64 64" fill="none" xmlns="http://www.w3.org/2000/svg">
<g id="np_job_2043816_000000 1">
<g id="Group">
<path id="Vector" d="M56.8326 16.7674H45.0554V13.8223C45.0554 9.27732 41.3428 5.56763 36.8006 5.56763H27.2006C22.6556 5.56763 18.9459 9.28014 18.9459 13.8223V16.7674H7.10592C4.0334 16.7674 1.60089 19.2623 1.60089 22.2724V29.6324C1.60089 30.5924 2.36838 31.3599 3.32838 31.3599H28.481V30.0149C28.481 29.3749 28.9935 28.8624 29.6335 28.8624H34.3685C35.0085 28.8624 35.521 29.3748 35.521 30.0149V31.3599H60.6737C61.6337 31.3599 62.4011 30.5924 62.4011 29.6324V22.3351C62.4011 19.2651 59.9062 16.7676 56.8337 16.7676L56.8326 16.7674ZM25.0874 13.8248C25.0874 12.6723 26.0474 11.7123 27.1999 11.7123H36.7999C37.9524 11.7123 38.9124 12.6723 38.9124 13.8248V16.7699L25.0871 16.7674L25.0874 13.8248Z" fill="#B0A0DF"/>
<path id="Vector_2" d="M58.24 34.56H35.4547C35.2622 36.2875 33.7897 37.5675 31.9997 37.5675C30.2072 37.5675 28.7997 36.2225 28.6072 34.56H5.75987C4.79987 34.56 4.03238 35.3275 4.03238 36.2875V52.8622C4.03238 55.9347 6.52735 58.3672 9.5374 58.3672H54.4001C57.4726 58.3672 59.9676 55.8723 59.9676 52.7998V36.2871C59.9676 35.3271 59.2 34.56 58.24 34.56Z" fill="#B0A0DF"/>
</g>
</g>
</svg>
