<svg width="25" height="24" viewBox="0 0 25 24" fill="none" xmlns="http://www.w3.org/2000/svg">
<g clip-path="url(#clip0_11_107)">
<path fill-rule="evenodd" clip-rule="evenodd" d="M7.27893 0.994019C6.72665 0.994019 6.27893 1.44174 6.27893 1.99402V2.99402H5.27893C3.62208 2.99402 2.27893 4.33717 2.27893 5.99402V19.994C2.27893 21.6509 3.62208 22.994 5.27893 22.994H13.3799C12.794 22.4199 12.3086 21.7436 11.9525 20.994H5.27893C4.72665 20.994 4.27893 20.5463 4.27893 19.994V10.994H20.2789V11.2839C21.0013 11.4989 21.6749 11.8274 22.2789 12.2487V5.99402C22.2789 4.33717 20.9358 2.99402 19.2789 2.99402H18.2789V1.99402C18.2789 1.44174 17.8312 0.994019 17.2789 0.994019C16.7266 0.994019 16.2789 1.44174 16.2789 1.99402V2.99402H8.27893V1.99402C8.27893 1.44174 7.83121 0.994019 7.27893 0.994019ZM16.2789 5.99402V4.99402H8.27893V5.99402C8.27893 6.5463 7.83121 6.99402 7.27893 6.99402C6.72665 6.99402 6.27893 6.5463 6.27893 5.99402V4.99402H5.27893C4.72665 4.99402 4.27893 5.44174 4.27893 5.99402V8.99402H20.2789V5.99402C20.2789 5.44174 19.8312 4.99402 19.2789 4.99402H18.2789V5.99402C18.2789 6.5463 17.8312 6.99402 17.2789 6.99402C16.7266 6.99402 16.2789 6.5463 16.2789 5.99402Z" fill="black"/>
<path d="M17.2789 15.994C17.2789 15.4417 17.7266 14.994 18.2789 14.994C18.8312 14.994 19.2789 15.4417 19.2789 15.994V16.994H20.2789C20.8312 16.994 21.2789 17.4417 21.2789 17.994C21.2789 18.5463 20.8312 18.994 20.2789 18.994H19.2789V19.994C19.2789 20.5463 18.8312 20.994 18.2789 20.994C17.7266 20.994 17.2789 20.5463 17.2789 19.994V18.994H16.2789C15.7266 18.994 15.2789 18.5463 15.2789 17.994C15.2789 17.4417 15.7266 16.994 16.2789 16.994H17.2789V15.994Z" fill="black"/>
<path fill-rule="evenodd" clip-rule="evenodd" d="M24.2789 17.994C24.2789 21.3077 21.5926 23.994 18.2789 23.994C14.9652 23.994 12.2789 21.3077 12.2789 17.994C12.2789 14.6803 14.9652 11.994 18.2789 11.994C21.5926 11.994 24.2789 14.6803 24.2789 17.994ZM14.2608 17.994C14.2608 20.2131 16.0598 22.0121 18.2789 22.0121C20.498 22.0121 22.297 20.2131 22.297 17.994C22.297 15.7749 20.498 13.9759 18.2789 13.9759C16.0598 13.9759 14.2608 15.7749 14.2608 17.994Z" fill="black"/>
</g>
<defs>
<clipPath id="clip0_11_107">
<rect width="24" height="24" fill="white" transform="translate(0.278931 -0.00598145)"/>
</clipPath>
</defs>
</svg>
