<svg width="134" height="134" viewBox="0 0 134 134" fill="none" xmlns="http://www.w3.org/2000/svg">
<g id="np_talk_5782010_000000 1">
<path id="Vector" d="M45.4215 71.6933C48.8069 71.6933 51.8745 73.0683 54.0933 75.2819C56.4007 77.7975 57.6819 80.4797 57.6819 83.9537C57.6819 87.3287 56.3069 90.3912 54.0933 92.61C51.8641 94.8392 48.8016 96.2141 45.4215 96.2141C42.0465 96.2141 38.984 94.8392 36.7652 92.6256C34.536 90.3964 33.1611 87.3339 33.1611 83.9537C33.1611 80.5788 34.536 77.5163 36.7496 75.2975C38.9788 73.0683 42.0413 71.6933 45.4215 71.6933ZM79.8281 31.0373C81.4427 31.0373 82.9115 31.6936 83.9688 32.7509C85.0625 33.9645 85.6824 35.2197 85.6824 36.8916C85.6824 38.5009 85.0261 39.9593 83.9688 41.0219C82.9115 42.0896 81.4428 42.7459 79.8281 42.7459C78.2188 42.7459 76.7604 42.0896 75.6979 41.0323C74.6302 39.9594 73.9739 38.5011 73.9739 36.8916C73.9739 35.2821 74.6301 33.8239 75.6875 32.7613C76.7604 31.6936 78.2187 31.0373 79.8281 31.0373ZM50.2761 31.0373C51.8855 31.0373 53.3439 31.6936 54.4064 32.7509C55.4741 33.8239 56.1304 35.2821 56.1304 36.8916C56.1304 38.5011 55.4741 39.9593 54.4168 41.0219C53.3439 42.0896 51.8856 42.7459 50.2761 42.7459C48.6667 42.7459 47.2084 42.0896 46.1459 41.0323C45.0782 39.9594 44.4219 38.5011 44.4219 36.8916C44.4219 35.2821 45.0781 33.8239 46.1355 32.7613C47.2084 31.6936 48.6667 31.0373 50.2761 31.0373ZM65.0521 31.0373C66.6615 31.0373 68.1199 31.6936 69.1824 32.7509C70.2501 33.8239 70.9064 35.2821 70.9064 36.8916C70.9064 38.5011 70.2501 39.9593 69.1928 41.0219C68.1199 42.0896 66.6616 42.7459 65.0521 42.7459C63.4428 42.7459 61.9844 42.0896 60.9219 41.0323C59.8542 39.9594 59.1979 38.5011 59.1979 36.8916C59.1979 35.2821 59.8541 33.8239 60.9115 32.7613C61.9844 31.6936 63.4427 31.0373 65.0521 31.0373ZM85.9588 57.7827V66.8243C85.9588 68.2983 84.7661 69.4909 83.2921 69.4909C82.7453 69.4909 82.2348 69.3243 81.8129 69.043L74.1359 64.6107C71.1619 65.5326 68.0577 66.0118 64.9328 66.0118C61.8703 66.0118 58.7713 65.5535 55.7609 64.6159L47.9484 69.1315C46.6776 69.8659 45.0473 69.4336 44.3129 68.1628C44.0681 67.7409 43.9536 67.2826 43.9536 66.8295L43.9484 57.7879C38.8546 53.09 35.589 46.892 34.4536 40.3039C33.2713 33.4445 34.3911 26.1319 38.1514 19.6159C42.0785 12.5429 49.167 7.26174 56.9488 5.17854C65.0946 2.99627 73.0848 4.19938 80.4128 8.27227C87.8242 12.5431 92.793 19.4129 94.8447 27.0643C96.8917 34.7049 96.0218 43.1376 91.751 50.5336C90.8656 52.0805 89.8448 53.5284 88.7198 54.8825C87.8448 55.9294 86.9229 56.9033 85.9594 57.794L85.9588 57.7827ZM80.6255 60.4441V56.5952C80.6307 55.84 80.9536 55.09 81.5734 54.564C82.6828 53.6213 83.7089 52.59 84.6359 51.4755C85.5422 50.3869 86.3859 49.1785 87.1411 47.8661C90.6775 41.7464 91.3963 34.762 89.6985 28.4288C88.0006 22.0955 83.8859 16.408 77.7558 12.8715C71.6361 9.33507 64.6517 8.61627 58.3185 10.3141C51.9851 12.0068 46.2977 16.1215 42.7665 22.2464C39.6519 27.6319 38.7249 33.6995 39.7091 39.4024C40.6987 45.142 43.631 50.5169 48.2195 54.4597C48.8654 54.9441 49.282 55.7201 49.282 56.59V62.2097L54.0112 59.4753C54.6831 59.0326 55.5528 58.9024 56.3706 59.1941C59.1623 60.1889 62.0632 60.6733 64.9331 60.6733C67.881 60.6733 70.7976 60.1681 73.5476 59.1889C74.256 58.9441 75.0632 58.991 75.7664 59.3972L80.6258 62.2046V60.4389L80.6255 60.4441ZM81.4015 98.4175H94.4171C97.5264 98.4175 100.36 99.6883 102.402 101.735C104.448 103.782 105.719 106.61 105.719 109.72V126.58C105.719 128.054 104.527 129.246 103.053 129.246H72.7606C71.2866 129.246 70.0939 128.054 70.0939 126.58V109.72C70.0939 106.61 71.3647 103.777 73.4116 101.735C75.4586 99.6883 78.2866 98.4175 81.396 98.4175H81.4015ZM94.4171 103.751H81.4015C79.766 103.751 78.266 104.423 77.1879 105.506C76.1046 106.589 75.4327 108.084 75.4327 109.72V123.913H100.391V109.72C100.391 108.084 99.7195 106.584 98.6362 105.506C97.5528 104.423 96.058 103.751 94.4226 103.751H94.4171ZM87.9119 71.6935C91.2974 71.6935 94.365 73.0684 96.5838 75.282C98.8911 77.7976 100.172 80.4799 100.172 83.9539C100.172 87.3288 98.7974 90.3913 96.5838 92.6101C94.3546 94.8393 91.292 96.2143 87.9119 96.2143C84.537 96.2143 81.4744 94.8393 79.2556 92.6257C77.0264 90.3965 75.6515 87.334 75.6515 83.9539C75.6515 80.5789 77.0264 77.5164 79.24 75.2976C81.4692 73.0684 84.5318 71.6935 87.9119 71.6935ZM92.813 79.0528C91.563 77.8028 89.8286 77.0268 87.9119 77.0268C85.9952 77.0268 84.2608 77.8028 83.0056 79.0528C81.7556 80.3028 80.9796 82.0424 80.9796 83.9591C80.9796 85.8757 81.7557 87.6101 83.0056 88.8653C84.2556 90.1153 85.9952 90.8913 87.9119 90.8913C89.8286 90.8913 91.563 90.1153 92.8182 88.8653C94.0682 87.6153 94.8442 85.8757 94.8442 83.9591C94.8442 82.1935 94.1202 80.2768 92.8182 79.058L92.813 79.0528ZM38.917 98.4168H51.9326C55.0419 98.4168 57.8752 99.6876 59.917 101.735C61.9639 103.781 63.2347 106.609 63.2347 109.719V126.579C63.2347 128.053 62.042 129.246 60.568 129.246H30.276C28.802 129.246 27.6094 128.053 27.6094 126.579V109.719C27.6094 106.61 28.8802 103.776 30.9271 101.735C32.974 99.6876 35.802 98.4168 38.9115 98.4168H38.917ZM51.9326 103.75H38.917C37.2815 103.75 35.7815 104.422 34.7034 105.505C33.62 106.589 32.9482 108.083 32.9482 109.719V123.912H57.9068V109.719C57.9068 108.083 57.235 106.583 56.1516 105.505C55.0683 104.422 53.5735 103.75 51.938 103.75H51.9326ZM50.3232 79.0528C49.0732 77.8028 47.3388 77.0268 45.4222 77.0268C43.5055 77.0268 41.7711 77.8028 40.5159 79.0528C39.2659 80.3028 38.4899 82.0424 38.4899 83.9591C38.4899 85.8757 39.2659 87.6101 40.5159 88.8653C41.7659 90.1153 43.5055 90.8913 45.4222 90.8913C47.3388 90.8913 49.0732 90.1153 50.3284 88.8653C51.5784 87.6153 52.3544 85.8757 52.3544 83.9591C52.3544 82.1935 51.6305 80.2768 50.3284 79.058L50.3232 79.0528Z" fill="#B0A0DF"/>
</g>
</svg>
