<svg width="134" height="134" viewBox="0 0 134 134" fill="none" xmlns="http://www.w3.org/2000/svg">
<g id="np_brainstorm_521290_000000 1">
<g id="Group">
<path id="Vector" d="M73.0465 0.52082C42.9158 0.52082 18.4105 25.0262 18.4105 55.1568V65.3912L6.63971 83.9592C3.95744 87.7874 6.95222 93.6728 11.9261 93.5686H18.4105V98.3603C18.4105 104.662 23.5408 109.793 29.8428 109.793H35.025V129.142C35.025 131.173 36.6657 132.814 38.6969 132.814H98.9836C101.015 132.814 102.655 131.173 102.655 129.142C102.655 114.585 107.629 100.002 116.639 88.0739C123.853 78.5427 127.681 67.1366 127.681 55.1566C127.681 25.0259 103.176 0.520554 73.045 0.520554L73.0465 0.52082ZM110.781 83.6462C101.562 95.8336 96.1719 110.548 95.4172 125.469H42.3958V106.12C42.3958 104.088 40.7552 102.448 38.724 102.448H29.8698C27.6302 102.448 25.7813 100.625 25.7813 98.3591V89.8955C25.7813 87.8643 24.1406 86.2236 22.1094 86.2236H13.9324L25.2084 68.437C25.573 67.838 25.7813 67.1609 25.7813 66.4578V55.1556C25.7813 29.0876 47.0053 7.86362 73.0733 7.86362C99.1413 7.86362 120.365 29.0876 120.365 55.1556C120.339 65.5463 117.032 75.3903 110.782 83.645L110.781 83.6462Z" fill="#B0A0DF"/>
<path id="Vector_2" d="M73.984 41.016C64.6871 41.016 57.1094 48.5941 57.1094 57.8907C57.1094 67.1876 64.6875 74.7653 73.984 74.7653C83.281 74.7653 90.8587 67.1872 90.8587 57.8907C90.8587 48.5937 83.2806 41.016 73.984 41.016ZM73.984 67.4227C68.7236 67.4227 64.4528 63.1519 64.4528 57.8915C64.4528 52.6311 68.7236 48.3603 73.984 48.3603C79.2444 48.3603 83.5152 52.6311 83.5152 57.8915C83.5152 63.1519 79.2183 67.4227 73.984 67.4227Z" fill="#B0A0DF"/>
<path id="Vector_3" d="M108.984 48.3853H102.369C101.927 47.0572 101.38 45.7812 100.781 44.5312L105.468 39.8437C106.901 38.4115 106.901 36.0937 105.468 34.6355L97.2392 26.4063C95.8069 24.974 93.4892 24.974 92.0309 26.4063L87.3434 31.0937C86.0934 30.4687 84.7913 29.9218 83.4893 29.5052V22.8645C83.4893 20.8333 81.8486 19.1927 79.8174 19.1927H68.1768C66.1456 19.1927 64.5049 20.8333 64.5049 22.8645V29.4791C63.1768 29.9218 61.9008 30.4686 60.6508 31.0676L55.9633 26.3801C54.531 24.9479 52.2133 24.9479 50.755 26.3801L42.5258 34.6093C41.0936 36.0416 41.0936 38.3593 42.5258 39.8176L47.2133 44.5051C46.5883 45.7551 46.0414 47.0572 45.6248 48.3592H39.0102C36.979 48.3592 35.3384 49.9999 35.3384 52.0311V63.6717C35.3384 65.7029 36.979 67.3436 39.0102 67.3436H45.5728C46.0155 68.6717 46.5624 69.9477 47.1613 71.1977L42.4738 75.8852C41.0416 77.3175 41.0416 79.6352 42.4738 81.0935L50.703 89.3227C52.1353 90.7549 54.453 90.7549 55.9113 89.3227L60.5988 84.6352C61.8488 85.2602 63.1509 85.8071 64.4529 86.2237V92.8383C64.4529 94.8695 66.0936 96.5101 68.1248 96.5101H79.7654C81.7966 96.5101 83.4373 94.8695 83.4373 92.8383V86.2237C84.7654 85.781 86.0414 85.2341 87.2914 84.6352L91.9789 89.3227C93.4112 90.7549 95.7289 90.7549 97.1872 89.3227L105.416 81.0935C106.849 79.6612 106.849 77.3435 105.416 75.8852L100.729 71.1977C101.354 69.9477 101.901 68.6456 102.317 67.3436H108.932C110.963 67.3436 112.604 65.7029 112.604 63.6717V52.0311C112.656 50.0259 111.015 48.3853 108.984 48.3853ZM105.312 60.052H99.5829C97.8641 60.052 96.3798 61.2499 95.9892 62.9165C95.4163 65.4165 94.4528 67.7603 93.0725 69.9217C92.1611 71.3801 92.3694 73.2551 93.5933 74.4791L97.6297 78.5416L94.5828 81.5885L90.5203 77.5521C89.2963 76.3282 87.4213 76.1199 85.9629 77.0313C83.8015 78.3854 81.4317 79.375 78.9317 79.948C77.2651 80.3386 76.0672 81.8229 76.0672 83.5417V89.2709H71.7703V83.5417C71.7703 81.8229 70.5724 80.3386 68.9057 79.948C66.4057 79.375 64.062 78.4116 61.8745 77.0313C60.4161 76.1198 58.5412 76.3282 57.3172 77.5521L53.2547 81.5885L50.2077 78.5416L54.2441 74.4791C55.4681 73.2551 55.6764 71.3801 54.765 69.9217C53.4108 67.7603 52.4212 65.3905 51.8483 62.9165C51.4577 61.2499 49.9734 60.052 48.2546 60.052H42.5254V55.7291H48.2546C49.9734 55.7291 51.4576 54.5311 51.8483 52.8645C52.4212 50.3645 53.3847 48.0208 54.765 45.8593C55.6764 44.4009 55.4681 42.526 54.2441 41.302L50.2857 37.2395L53.3327 34.1925L57.3952 38.2289C58.6192 39.4529 60.4941 39.6612 61.9525 38.7498C64.114 37.3956 66.4837 36.406 68.9577 35.8331C70.6244 35.4425 71.8223 33.9582 71.8223 32.2394V26.5102H76.1192V32.2394C76.1192 33.9582 77.3171 35.4424 78.9837 35.8331C81.4837 36.406 83.8275 37.3695 85.9889 38.7498C87.4473 39.6612 89.3483 39.4529 90.5463 38.2289L94.6088 34.1925L97.6557 37.2395L93.6193 41.302C92.3954 42.526 92.1871 44.4009 93.0985 45.8593C94.4526 48.0208 95.4422 50.3905 96.0152 52.8645C96.4058 54.5312 97.8901 55.7291 99.6089 55.7291H105.338V60.052H105.312Z" fill="#B0A0DF"/>
</g>
</g>
</svg>
