<svg width="64" height="64" viewBox="0 0 64 64" fill="none" xmlns="http://www.w3.org/2000/svg">
<path d="M56.4403 31.2C56.0378 28.2025 53.4654 25.9725 50.4403 26H13.5002C10.4751 25.9725 7.90266 28.2025 7.50016 31.2L4.56013 53.2C4.31763 54.9325 4.84263 56.6875 6.00013 58C7.14516 59.28 8.78266 60.0075 10.5001 60H53.4403C55.1777 60.025 56.8428 59.295 58.0003 58C59.1453 56.6975 59.6703 54.96 59.4403 53.24L56.4403 31.2ZM20 50H14V46H20V50ZM20 44H14V40H20V44ZM20 38H14V34H20V38ZM30 50H24V46H30V50ZM30 44H24V40H30V44ZM30 38H24V34H30V38ZM40 50H34V46H40V50ZM40 44H34V40H40V44ZM40 38H34V34H40V38ZM50 50H44V46H50V50ZM50 44H44V40H50V44ZM50 38H44V34H50V38Z" fill="#BEDEBA"/>
<path d="M50 4H14C11.3475 4 8.805 5.05248 6.92992 6.92998C5.05242 8.80499 3.99994 11.3475 3.99994 14.0001V18.0001C3.99994 21.3126 6.68743 24.0001 9.99994 24.0001H17.9999C21.3125 24.0001 23.9999 21.3126 23.9999 18.0001V16.0001H39.9999V18.0001C39.9999 21.3126 42.6874 24.0001 45.9999 24.0001H53.9999C57.3125 24.0001 59.9999 21.3126 59.9999 18.0001V14.0001C59.9999 11.3476 58.9475 8.80506 57.07 6.92998C55.195 5.05248 52.6526 4 50 4Z" fill="#BEDEBA"/>
</svg>
