<svg width="64" height="74" viewBox="0 0 64 74" fill="none" xmlns="http://www.w3.org/2000/svg">
<path d="M63.9862 30.5667V30.5207C63.8194 23.7607 63.1232 17.6682 62.0359 13.3588L61.9899 13.1344L61.9151 12.887C61.0809 10.2348 58.5783 9.26248 57.5082 8.84825C50.5066 6.13563 42.2624 3.00591 34.1907 0.353823V0.356699C33.5348 0.149585 32.8531 0.0316426 32.1627 0.00862993L31.9987 0H31.8319C31.1501 0.0230126 30.4712 0.138076 29.8182 0.34519C21.7406 3.00891 13.4966 6.13863 6.49189 8.85435C5.4247 9.26857 2.92202 10.238 2.08208 12.8873L2.00441 13.1347L1.96414 13.3447V13.3706C0.873893 17.6682 0.180642 23.7605 0.013846 30.5207V30.5668C-0.121351 39.8491 0.76461 44.3744 1.31691 46.264L1.3917 46.5315C2.27767 49.3707 3.90004 52.2846 6.21862 55.2041C8.69249 58.3137 11.9718 61.4779 15.976 64.6051C22.6382 69.8347 28.7997 72.8609 28.8601 72.8926L28.9579 72.9386H28.9723L28.9694 72.9415C29.9158 73.3988 30.9485 73.6376 31.9985 73.6405C33.0513 73.6405 34.0927 73.4017 35.0419 72.9443L35.1397 72.8983L35.1915 72.8724V72.8695C39.7134 70.5251 44.0084 67.7607 48.0152 64.6137C52.0194 61.4811 55.3045 58.3169 57.7814 55.2076C60.0999 52.2908 61.7224 49.3768 62.6055 46.5379L62.6572 46.374L62.6803 46.2704C63.2326 44.3805 64.1214 39.8608 63.9862 30.5667ZM31.8319 18.3902C35.0882 18.3902 38.0252 20.3521 39.2732 23.361C40.5188 26.3727 39.8313 29.8362 37.5271 32.1404C35.223 34.4445 31.7596 35.132 28.7477 33.8865C25.7388 32.638 23.777 29.701 23.777 26.4451C23.777 21.9979 27.3843 18.3902 31.8319 18.3902ZM45.2654 46.6012V46.6357C45.1302 47.8209 44.6325 48.9369 43.8386 49.8315C43.059 50.7377 42.0062 51.3705 40.8412 51.6351C39.1785 52.012 35.0362 52.383 32.4528 52.3658C29.8639 52.4291 24.7898 52.0263 23.127 51.6351V51.6323C21.9591 51.3647 20.9091 50.729 20.1296 49.8172C19.3385 48.9255 18.8409 47.8093 18.7057 46.6242V46.5897C18.6165 45.7324 18.5906 44.8724 18.6222 44.0123C18.5877 43.2989 18.6165 42.5855 18.7028 41.8779V41.8433C18.8236 40.7158 19.327 39.66 20.1324 38.8603C20.9408 38.052 22.0022 37.5399 23.1384 37.4134C24.804 37.2351 29.8696 37.1402 32.4473 37.143C35.0219 37.143 39.1555 37.2379 40.821 37.4134C41.9573 37.54 43.0187 38.052 43.827 38.8633C44.6354 39.6658 45.1416 40.7215 45.2595 41.8549V41.8894C45.3429 42.5942 45.3861 43.3018 45.389 44.0123C45.3918 44.8782 45.3517 45.7411 45.2654 46.6012Z" fill="#BEDEBA"/>
</svg>
