<svg width="24" height="24" viewBox="0 0 24 24" fill="none" xmlns="http://www.w3.org/2000/svg">
<path d="M12 13.8C15.1125 13.8 17.625 11.2875 17.625 8.17499C17.625 5.06249 15.1125 2.54999 12 2.54999C8.8875 2.54999 6.375 5.06249 6.375 8.17499C6.375 11.2875 8.8875 13.8 12 13.8ZM12 4.23749C14.175 4.23749 15.9375 5.99999 15.9375 8.17499C15.9375 10.35 14.175 12.1125 12 12.1125C9.825 12.1125 8.0625 10.35 8.0625 8.17499C8.0625 5.99999 9.825 4.23749 12 4.23749Z" fill="black"/>
<path d="M23.0625 19.95C19.9875 17.3625 16.0875 15.9375 12 15.9375C7.91252 15.9375 4.01252 17.3625 0.937524 19.95C0.600024 20.25 0.525024 20.775 0.825024 21.15C1.12502 21.4875 1.65002 21.5625 2.02502 21.2625C4.80002 18.9 8.32502 17.625 12 17.625C15.675 17.625 19.2 18.9 21.9375 21.225C22.0875 21.375 22.275 21.4125 22.5 21.4125C22.725 21.4125 22.9875 21.3 23.1375 21.1125C23.4375 20.775 23.4 20.25 23.0625 19.95Z" fill="black"/>
</svg>
