<svg width="116" height="115" viewBox="0 0 116 115" fill="none" xmlns="http://www.w3.org/2000/svg">
<path d="M57.9502 10.3635C55.3086 10.3814 52.8662 11.7605 51.4887 13.9977L38.0849 35.6453L16.8105 23.691H16.7969C13.8063 22.0334 10.4078 22.6354 8.16939 24.4996C5.93093 26.3639 4.73927 29.5938 5.86748 32.8013V32.8057V32.8192L21.4416 76.3444C22.5246 79.3632 25.4201 81.3936 28.6508 81.3846H87.3399C90.5707 81.3846 93.457 79.3676 94.5355 76.3444L110.11 32.8146L110.114 32.8191C110.119 32.8146 110.123 32.8101 110.128 32.8056C111.265 29.5892 110.064 26.3683 107.821 24.504C105.578 22.6353 102.162 22.0244 99.1667 23.6954L77.8969 35.6497L64.5024 14.0159C63.1158 11.7518 60.6327 10.3637 57.9593 10.3682L57.9638 10.3637L57.9502 10.3635ZM29.0001 86.6499C25.348 86.6499 22.3663 89.6192 22.3663 93.2399V98.0286C22.3663 101.649 25.3479 104.632 29.0001 104.632H86.9816C90.6337 104.632 93.6289 101.649 93.6289 98.0286V93.2399C93.6289 89.6193 90.6338 86.6499 86.9816 86.6499H29.0001Z" fill="#BEDEBA"/>
</svg>
