<svg width="64" height="64" viewBox="0 0 64 64" fill="none" xmlns="http://www.w3.org/2000/svg">
<g id="np_exam_4423670_000000 1">
<path id="Vector" fill-rule="evenodd" clip-rule="evenodd" d="M53.1552 4.74758C52.4002 3.98009 51.3677 3.55257 50.2927 3.55506H13.7077C11.4702 3.57506 9.66272 5.39007 9.65273 7.62758V56.3725C9.66273 58.61 11.4702 60.425 13.7077 60.4451H50.2927C52.5377 60.4351 54.3552 58.6175 54.3652 56.3725V7.62758C54.3677 6.54259 53.9327 5.50258 53.1552 4.74758ZM23.2902 50.7201C22.4877 51.5026 21.2102 51.5026 20.4102 50.7201L16.3377 46.65L19.2177 43.77L21.8302 46.42L26.4877 41.745L29.3677 44.625L23.2902 50.7201ZM23.2902 36.4973C22.4877 37.2799 21.2102 37.2799 20.4102 36.4973L16.3377 32.4273L19.2177 29.5473L21.8302 32.1973L26.4877 27.5223L29.3677 30.4023L23.2902 36.4973ZM23.2902 22.2746C22.4877 23.0571 21.2102 23.0571 20.4102 22.2746L16.3377 18.2046L19.2177 15.3246L21.8302 17.9746L26.4902 13.2796L29.3876 16.1771L23.2902 22.2746ZM46.2227 50.2919H34.0275V46.2219H46.2227V50.2919ZM46.2227 36.0692H34.0275V31.9992H46.2227V36.0692ZM46.2227 21.8465L34.0275 21.849V17.7764H46.2227V21.8465Z" fill="#BEDEBA"/>
</g>
</svg>
