<svg width="134" height="134" viewBox="0 0 134 134" fill="none" xmlns="http://www.w3.org/2000/svg">
<g id="np_growth_4220362_000000 1">
<g id="Group">
<path id="Vector" d="M54.5306 17.4693C54.9316 18.4016 55.8639 19.0683 56.7962 19.0683C57.0618 19.0683 57.4628 19.0683 57.7285 18.9328C59.0618 18.4016 59.593 16.9328 59.0618 15.735L56.7962 10.136C56.2649 8.80271 54.7962 8.27151 53.5983 8.80271C52.265 9.33396 51.7338 10.8027 52.265 12.0006L54.5306 17.4693Z" fill="#B0A0DF"/>
<path id="Vector_2" d="M75.4691 18.932C75.7347 19.0674 76.1357 19.0674 76.4013 19.0674C77.3336 19.0674 78.2659 18.5362 78.6669 17.4685L81.068 11.9997C81.5993 10.6663 80.9326 9.333 79.7347 8.8018C78.4013 8.27055 77.068 8.93722 76.5368 10.1351L74.2712 15.7341C73.5993 16.932 74.2659 18.4008 75.4691 18.932Z" fill="#B0A0DF"/>
<path id="Vector_3" d="M66.6665 17.068C67.9998 17.068 69.1977 16.0003 69.1977 14.5368V5.86493C69.1977 4.53159 68.1299 3.33372 66.6665 3.33372C65.3331 3.33372 64.1353 4.40143 64.1353 5.86493V14.6671C64.1353 16.0004 65.3332 17.068 66.6665 17.068Z" fill="#B0A0DF"/>
<path id="Vector_4" d="M57.8638 87.3333C59.0617 86.6667 59.4627 85.0677 58.7961 83.8645C58.1294 82.6666 56.5305 82.2656 55.3273 82.9322C54.796 83.1979 50.1294 86.1301 49.8585 91.0677C49.5928 94.2656 51.1918 97.3333 54.6606 100.135C55.1918 100.536 55.7283 100.667 56.2595 100.667C56.9262 100.667 57.7283 100.401 58.2595 99.7344C59.1918 98.6667 58.9262 97.0677 57.8585 96.1355C56.3897 94.9375 54.7907 93.2032 54.9262 91.3333C54.9314 89.4688 57.067 87.7344 57.8638 87.3333Z" fill="#B0A0DF"/>
<path id="Vector_5" d="M78.1357 82.932C76.9378 82.2653 75.3336 82.6664 74.6669 83.8643C74.0003 85.0622 74.4013 86.6664 75.469 87.3331C76.2711 87.8643 78.4013 89.4685 78.5367 91.4685C78.6722 93.2029 76.9378 95.0675 75.6045 96.2707C74.5368 97.203 74.4066 98.8019 75.2034 99.8696C75.7347 100.536 76.4014 100.802 77.2034 100.802C77.7347 100.802 78.2711 100.667 78.8024 100.271C82.2712 97.4685 83.8701 94.4061 83.6045 91.2029C83.1982 86.1352 78.6671 83.1976 78.1357 82.932Z" fill="#B0A0DF"/>
<path id="Vector_6" d="M107.735 101.864C107.735 96.2651 104.667 91.4629 99.8701 89.1973C98.9378 81.0619 92.2712 74.5307 84.2714 74.2653C81.7402 70.4008 77.6048 67.9997 72.9381 67.9997C71.6048 67.9997 70.4069 68.2654 69.2037 68.531V59.1977C73.2037 59.0622 80.9381 58.2654 86.0064 53.0622C93.0741 45.9945 92.1418 34.1302 92.1418 33.5929C92.0064 32.3949 91.0741 31.4574 89.8762 31.3273C89.4752 31.3273 82.6784 30.796 76.4069 33.4627C73.8757 27.0617 68.6725 22.6606 68.4069 22.395C67.4746 21.5929 66.1413 21.5929 65.209 22.395C64.9434 22.6606 59.7402 27.0617 57.209 33.4627C50.808 30.7961 44.0112 31.1971 43.6104 31.3273C42.4124 31.4627 41.4749 32.395 41.3448 33.5929C41.3448 34.1241 40.4125 45.9939 47.4802 53.0622C52.548 58.1299 60.2824 59.0622 64.2829 59.1977V68.531C63.085 68.1299 61.8818 67.9997 60.5485 67.9997C56.0173 67.9997 51.7464 70.4008 49.2152 74.2653C41.2152 74.531 34.5485 80.932 33.6165 89.1973C28.8144 91.4629 25.752 96.3952 25.752 101.864C25.752 104.932 26.6842 107.864 28.5541 110.265C27.4864 112.401 26.9552 114.666 26.9552 117.067C26.9552 122.135 29.3562 126.802 33.4864 129.468C33.8874 129.734 34.4186 129.869 34.9552 129.869L98.6685 129.864C99.1997 129.864 99.6008 129.729 100.137 129.463C104.273 126.661 106.668 122.13 106.668 117.062C106.668 114.661 106.137 112.395 105.07 110.26C106.804 107.864 107.736 104.932 107.736 101.864L107.735 101.864ZM87.1986 36.2653C87.0632 39.5987 86.3965 45.7341 82.532 49.5987C79.8653 52.4008 75.8653 53.4632 72.6674 53.9997C75.1986 50.6664 77.7352 45.9997 77.7352 40.6664C77.7352 39.8643 77.7352 39.1976 77.5997 38.5309C80.9331 36.8017 84.8028 36.4007 87.1986 36.2653ZM66.668 27.8643C68.9336 30.2653 72.8034 35.1976 72.8034 40.5309C72.8034 45.8643 68.9337 50.932 66.668 53.3331C64.4024 50.932 60.5325 45.9997 60.5325 40.6664C60.5325 35.3331 64.4022 30.2653 66.668 27.8643ZM46.1373 36.2653C48.5384 36.4007 52.2728 36.7966 55.7362 38.4008C55.6008 39.0675 55.6008 39.8696 55.6008 40.5363C55.6008 45.8696 58.2675 50.6717 60.6685 53.8696C57.4707 53.3383 53.6008 52.2707 50.804 49.4685C47.0696 45.7341 46.2676 39.5987 46.1373 36.2653ZM64.1373 107.468C60.4029 105.734 56.4029 106.4 54.2728 107.202C52.9394 107.734 52.2728 109.202 52.804 110.536C53.3352 111.869 54.804 112.536 56.1373 112.005C56.1373 112.005 60.9394 110.27 64.1373 113.739V125.072L52.0018 125.067C52.4029 123.333 52.6685 121.067 51.8664 118.932C50.7987 115.734 48.0019 113.197 43.6008 111.734C42.2675 111.333 40.7987 111.999 40.4029 113.333C39.8717 114.666 40.6686 116.135 42.0019 116.531C44.804 117.463 46.5331 118.932 47.0696 120.666C47.6009 122.265 47.0696 124.135 46.6686 125.197H35.4707C33.0696 123.333 31.7363 120.531 31.7363 117.463C31.7363 115.463 32.2676 113.463 33.4707 111.864C34.1374 110.932 34.002 109.598 33.2051 108.666C31.6061 106.932 30.6739 104.666 30.6739 102.265C30.6739 99.1972 32.1427 96.5305 34.4083 94.9316C35.8771 98.666 38.6739 102.666 44.8093 105.067C45.075 105.202 45.476 105.202 45.7416 105.202C46.8093 105.202 47.7416 104.536 48.1427 103.604C48.674 102.27 48.0073 100.801 46.6739 100.27C42.1427 98.5358 39.476 95.3379 38.5384 90.8014C38.9395 84.6659 43.7363 79.6035 49.8718 79.6035H50.403C51.4707 79.6035 52.403 79.0723 52.8041 78.1347C54.2729 75.067 57.2052 73.2024 60.403 73.2024C61.7364 73.2024 62.9342 73.4681 64.1374 74.1347L64.1373 107.468ZM99.736 111.468C100.804 113.202 101.47 115.067 101.47 117.067C101.47 120.135 100.137 123.067 97.736 124.801H86.6682C86.137 123.734 85.7359 121.869 86.2672 120.27C86.7984 118.536 88.5328 117.202 91.3349 116.135C92.6683 115.603 93.3349 114.27 92.9338 112.937C92.5328 111.603 91.0693 110.937 89.736 111.338C85.4704 112.937 82.6683 115.338 81.4704 118.536C80.6683 120.801 80.9391 122.937 81.335 124.671H69.1995V113.338C72.3974 109.869 77.064 111.603 77.335 111.603C78.6683 112.135 80.1371 111.468 80.5328 110.135C81.0641 108.801 80.3974 107.333 79.064 106.801C76.9286 105.999 72.9286 105.468 69.1995 107.067V73.999C70.3974 73.4677 71.6006 73.0667 72.9339 73.0667C76.1318 73.0667 79.0694 74.9312 80.5328 77.9989C80.9339 78.9312 82.0016 79.4677 82.9339 79.4677C83.0693 79.4677 83.3349 79.4677 83.6006 79.3323C89.4651 79.3323 94.4027 84.2646 94.7984 90.5302C93.9964 95.0614 91.1995 98.2646 86.663 99.999C85.3296 100.53 84.663 101.999 85.1942 103.332C85.5952 104.265 86.5275 104.931 87.5952 104.931C87.8609 104.931 88.2619 104.931 88.5275 104.796C94.5275 102.395 97.4598 98.3948 98.9286 94.6604C101.194 96.2593 102.663 99.0614 102.663 101.994C102.663 104.395 101.731 106.66 100.132 108.395C99.1995 109.197 99.0693 110.531 99.736 111.468Z" fill="#B0A0DF"/>
</g>
</g>
</svg>
