<svg width="64" height="64" viewBox="0 0 64 64" fill="none" xmlns="http://www.w3.org/2000/svg">
<g id="np_venn-diagram_98708_000000 1">
<path id="Vector" d="M60.8 22.1428C60.8 12.2151 52.7526 4.17029 42.8275 4.17029C38.78 4.17029 35.0451 5.51032 32.0403 7.7653C29.0353 5.50782 25.3005 4.17029 21.2531 4.17029C11.3254 4.17029 3.28064 12.2176 3.28064 22.1428C3.28064 29.5277 7.73562 35.8701 14.103 38.6356C13.913 39.6831 13.808 40.7581 13.808 41.8581C13.808 51.7858 21.8554 59.8306 31.7805 59.8306C41.7082 59.8306 49.753 51.7832 49.753 41.8581C49.753 40.8256 49.6605 39.8181 49.4955 38.8331C56.1208 36.1831 60.8 29.7127 60.8 22.1428ZM32.0397 10.6951C33.2472 11.8326 34.2722 13.1626 35.0722 14.6326L31.5847 11.1451C31.7347 10.9926 31.8847 10.8401 32.0397 10.6951ZM44.1894 37.81C43.7944 37.845 43.3944 37.8675 42.9894 37.87L36.6019 31.4825C36.7619 31.2199 36.9169 30.9549 37.0644 30.6849L44.1894 37.81ZM38.0644 28.4999C38.1795 28.1949 38.2894 27.8899 38.3895 27.5774C38.3994 27.5824 38.4069 27.5874 38.4169 27.5924L46.0419 35.2174C46.3494 35.8773 46.6144 36.5624 46.8294 37.2673L38.0644 28.4999ZM17.9697 34.3324C18.1172 34.0624 18.2722 33.7949 18.4347 33.5349L22.7022 37.8024C22.3072 37.8399 21.9072 37.8599 21.5047 37.8649L17.9697 34.3324ZM17.9822 37.5274C17.5647 37.4374 17.1497 37.3374 16.7447 37.2174C16.8172 36.9849 16.8972 36.7549 16.9797 36.5249L17.9822 37.5274ZM19.7772 31.6949C19.9697 31.4674 20.1697 31.2474 20.3747 31.0299L26.3598 37.0149C26.0423 37.1249 25.7198 37.2199 25.3923 37.3099L19.7772 31.6949ZM22.0372 29.5099C22.2722 29.3249 22.5147 29.1449 22.7622 28.9724L29.392 35.6021C29.1295 35.7621 28.857 35.9096 28.582 36.0546L22.0372 29.5099ZM24.7522 27.7824C25.0397 27.6374 25.3297 27.4999 25.6272 27.3749C25.8422 28.0774 26.0997 28.7599 26.3922 29.4249L24.7522 27.7824ZM27.1322 23.2074L28.1747 24.2499C27.8697 24.3124 27.5647 24.3774 27.2622 24.4549C27.2047 24.0449 27.1622 23.6299 27.1322 23.2074ZM27.2272 20.1199C27.2747 19.7549 27.3322 19.3924 27.4047 19.0349L32.2698 23.9C32.1073 23.895 31.9473 23.8825 31.7823 23.8825C31.5248 23.8825 31.2698 23.895 31.0148 23.9075L27.2272 20.1199ZM28.1147 16.5624C28.2297 16.2599 28.3547 15.9649 28.4872 15.6724L36.8623 24.0475C36.8398 24.23 36.8248 24.4175 36.7973 24.5975C36.5123 24.515 36.2223 24.4475 35.9323 24.3775L28.1147 16.5624ZM35.2923 33.3573L39.4349 37.4998C38.8349 37.3673 38.2473 37.1998 37.6749 37.0023L34.7124 34.0398C34.9124 33.8148 35.1073 33.5898 35.2923 33.3573ZM29.6098 13.6146C29.7748 13.3596 29.9473 13.1121 30.1248 12.8696L36.7623 19.507C36.8423 19.977 36.8998 20.457 36.9348 20.942L29.6098 13.6146ZM5.5196 22.1419C5.5196 13.452 12.5647 6.40946 21.2521 6.40946C24.6171 6.40946 27.7321 7.46942 30.2895 9.26693C26.937 12.532 24.852 17.0922 24.852 22.1418C24.852 23.1743 24.9445 24.1818 25.1095 25.1668C20.1445 27.1544 16.2718 31.2868 14.6468 36.4219C9.25927 33.9244 5.5196 28.4715 5.5196 22.1419ZM31.782 57.5896C23.0921 57.5896 16.0495 50.5445 16.0495 41.8571C16.0495 41.0221 16.117 40.2022 16.242 39.4022C17.8345 39.8647 19.5145 40.1147 21.2545 40.1147C25.302 40.1147 29.0369 38.7746 32.0417 36.5197C35.0467 38.7771 38.7815 40.1147 42.8289 40.1147C44.3889 40.1147 45.9039 39.9147 47.3489 39.5422C47.4614 40.2972 47.5189 41.0697 47.5189 41.8572C47.5164 50.5471 40.4712 57.5897 31.7813 57.5897L31.782 57.5896ZM48.9794 36.6271C47.532 31.8596 44.1544 27.9346 39.7596 25.7522L39.7096 25.7022L39.6921 25.7197C39.4421 25.5972 39.1921 25.4772 38.9346 25.3647C39.1246 24.3172 39.2296 23.2422 39.2296 22.1421C39.2296 17.0922 37.1446 12.5319 33.7921 9.26727C36.3496 7.46727 39.4646 6.4098 42.8295 6.4098C51.5195 6.4098 58.562 13.4549 58.562 22.1423C58.5595 28.6472 54.6121 34.2296 48.9794 36.6271Z" fill="#B0A0DF"/>
</g>
</svg>
