<svg width="134" height="134" viewBox="0 0 134 134" fill="none" xmlns="http://www.w3.org/2000/svg">
<g id="np_people_1010226_000000 1" clip-path="url(#clip0_381_391)">
<path id="Vector" d="M35.2921 125.489C35.2921 127.656 33.5369 129.411 31.3754 129.411C29.2088 129.411 27.4536 127.656 27.4536 125.489V121.578C27.4536 116.974 24.4014 113.724 20.589 113.724H15.6932C10.9901 113.724 7.84422 116.87 7.84422 121.567V125.489C7.84422 127.656 6.08902 129.411 3.92236 129.411C1.75569 129.411 0.000488281 127.656 0.000488281 125.489V121.567C0.000488281 112.536 6.66195 105.879 15.6938 105.879H20.5897C28.8449 105.879 35.2924 112.744 35.2924 121.577L35.2921 125.489ZM133.333 125.489C133.333 127.656 131.578 129.411 129.412 129.411C127.245 129.411 125.49 127.656 125.49 125.489V121.578C125.49 116.974 122.438 113.724 118.625 113.724H113.734C109.031 113.724 105.88 116.87 105.88 121.567V125.489C105.88 127.656 104.125 129.411 101.959 129.411C99.797 129.411 98.0418 127.656 98.0418 125.489V121.567C98.0418 112.536 104.698 105.879 113.735 105.879H118.626C126.881 105.879 133.334 112.744 133.334 121.577L133.333 125.489ZM35.2921 52.9427C35.2921 55.1093 33.5369 56.8645 31.3754 56.8645C29.2088 56.8645 27.4536 55.1093 27.4536 52.9427V49.026C27.4536 44.4219 24.4014 41.1771 20.589 41.1771H15.6932C10.9901 41.1771 7.84422 44.3229 7.84422 49.0208V52.9427C7.84422 55.1093 6.08902 56.8645 3.92236 56.8645C1.75569 56.8645 0.000488281 55.1093 0.000488281 52.9427V49.0208C0.000488281 39.9896 6.66195 33.3328 15.6938 33.3328H20.5897C28.8449 33.3328 35.2924 40.1921 35.2924 49.0261L35.2921 52.9427ZM133.333 52.9427C133.333 55.1093 131.578 56.8645 129.412 56.8645C127.245 56.8645 125.49 55.1093 125.49 52.9427V49.026C125.49 44.4219 122.438 41.1771 118.625 41.1771H113.734C109.031 41.1771 105.88 44.3229 105.88 49.0208V52.9427C105.88 55.1093 104.125 56.8645 101.959 56.8645C99.797 56.8645 98.0418 55.1093 98.0418 52.9427V49.0208C98.0418 39.9896 104.698 33.3328 113.735 33.3328H118.626C126.881 33.3328 133.334 40.1921 133.334 49.0261L133.333 52.9427ZM77.4788 90.8693C74.3798 92.9215 70.661 94.1193 66.6662 94.1193C62.6714 94.1193 58.9526 92.9214 55.8537 90.8693L45.911 100.812C44.3798 102.343 41.8954 102.343 40.3641 100.812C38.8329 99.2808 38.8329 96.7964 40.3641 95.2651L50.3068 85.3224C48.2546 82.2235 47.0568 78.5047 47.0568 74.5099C47.0568 70.5151 48.2547 66.7963 50.3068 63.6973L42.3224 55.7129C40.7912 54.1817 40.7912 51.6973 42.3224 50.166C43.8536 48.6348 46.338 48.6348 47.8693 50.166L55.8537 58.1504C58.9526 56.0983 62.6714 54.9004 66.6662 54.9004C70.661 54.9004 74.3798 56.0983 77.4788 58.1504L85.4632 50.166C86.9944 48.6348 89.4788 48.6348 91.0101 50.166C92.5413 51.6972 92.5413 54.1816 91.0101 55.7129L83.0257 63.6973C85.0778 66.7963 86.2757 70.5151 86.2757 74.5099C86.2757 78.5047 85.0778 82.2235 83.0257 85.3224L92.9684 95.2651C94.4996 96.7963 94.4996 99.2807 92.9684 100.812C91.4372 102.343 88.9528 102.343 87.4214 100.812L77.4788 90.8693ZM66.6662 86.2756C73.1662 86.2756 78.4318 81.0048 78.4318 74.51C78.4318 68.01 73.1662 62.7444 66.6662 62.7444C60.1662 62.7444 54.9006 68.01 54.9006 74.51C54.9006 81.0048 60.1662 86.2756 66.6662 86.2756ZM17.6449 99.9996C11.1501 99.9996 5.87929 94.734 5.87929 88.234C5.87929 81.7392 11.1501 76.4684 17.6449 76.4684C24.1449 76.4684 29.4105 81.7392 29.4105 88.234C29.4105 94.734 24.1449 99.9996 17.6449 99.9996ZM17.6449 92.1559C19.8116 92.1559 21.5668 90.4007 21.5668 88.234C21.5668 86.0673 19.8116 84.3121 17.6449 84.3121C15.4782 84.3121 13.723 86.0673 13.723 88.234C13.723 90.4007 15.4782 92.1559 17.6449 92.1559ZM115.686 99.9996C109.186 99.9996 103.921 94.734 103.921 88.234C103.921 81.7392 109.186 76.4684 115.686 76.4684C122.181 76.4684 127.452 81.7392 127.452 88.234C127.452 94.734 122.181 99.9996 115.686 99.9996ZM115.686 92.1559C117.853 92.1559 119.608 90.4007 119.608 88.234C119.608 86.0673 117.853 84.3121 115.686 84.3121C113.52 84.3121 111.764 86.0673 111.764 88.234C111.764 90.4007 113.52 92.1559 115.686 92.1559ZM17.6449 27.4532C11.1501 27.4532 5.87929 22.1824 5.87929 15.6876C5.87929 9.1876 11.1501 3.922 17.6449 3.922C24.1449 3.922 29.4105 9.1876 29.4105 15.6876C29.4105 22.1824 24.1449 27.4532 17.6449 27.4532ZM17.6449 19.6095C19.8116 19.6095 21.5668 17.8543 21.5668 15.6876C21.5668 13.5209 19.8116 11.7657 17.6449 11.7657C15.4782 11.7657 13.723 13.5209 13.723 15.6876C13.723 17.8543 15.4782 19.6095 17.6449 19.6095ZM115.686 27.4532C109.186 27.4532 103.921 22.1824 103.921 15.6876C103.921 9.1876 109.186 3.922 115.686 3.922C122.181 3.922 127.452 9.1876 127.452 15.6876C127.452 22.1824 122.181 27.4532 115.686 27.4532ZM115.686 19.6095C117.853 19.6095 119.608 17.8543 119.608 15.6876C119.608 13.5209 117.853 11.7657 115.686 11.7657C113.52 11.7657 111.764 13.5209 111.764 15.6876C111.764 17.8543 113.52 19.6095 115.686 19.6095Z" fill="#B0A0DF"/>
</g>
<defs>
<clipPath id="clip0_381_391">
<rect width="133.333" height="133.333" fill="white"/>
</clipPath>
</defs>
</svg>
