<svg width="116" height="115" viewBox="0 0 116 115" fill="none" xmlns="http://www.w3.org/2000/svg">
<g clip-path="url(#clip0_401_881)">
<path d="M77.0674 10.7812L58.9424 0.449189C57.8549 -0.179723 56.4955 -0.179723 55.3174 0.449189L37.1924 10.7812C36.1049 11.4102 35.3799 12.5781 35.3799 13.9258V34.5902C35.3799 35.848 36.1049 37.1058 37.1924 37.7347L55.3174 48.0668C56.4049 48.6957 57.7643 48.6957 58.9424 48.0668L77.0674 37.7347C78.1549 37.1058 78.8799 35.9378 78.8799 34.5902V13.9258C78.8799 12.6679 78.1549 11.4102 77.0674 10.7812Z" fill="#B0A0DF"/>
<path d="M77.0674 77.2662L58.9424 66.9342C57.8549 66.3052 56.4955 66.3052 55.3174 66.9342L37.1924 77.2662C36.1049 77.8951 35.3799 79.0631 35.3799 80.4108V101.075C35.3799 102.333 36.1049 103.591 37.1924 104.22L55.3174 114.552C56.4049 115.181 57.7643 115.181 58.9424 114.552L77.0674 104.22C78.1549 103.591 78.8799 102.423 78.8799 101.075V80.4108C78.8799 79.1529 78.1549 77.8951 77.0674 77.2662Z" fill="#B0A0DF"/>
<path d="M113.317 44.0231L95.1924 33.6911C94.1049 33.0622 92.7455 33.0622 91.5674 33.6911L73.4424 44.0231C72.3549 44.6521 71.6299 45.82 71.6299 47.1677V67.8321C71.6299 69.0899 72.3549 70.3477 73.4424 70.9766L91.5674 81.3087C92.6549 81.9376 94.0143 81.9376 95.1924 81.3087L113.317 70.9766C114.405 70.3477 115.13 69.1797 115.13 67.8321V47.1677C115.13 45.9098 114.405 44.6521 113.317 44.0231Z" fill="#B0A0DF"/>
<path d="M40.8174 44.0231L22.6924 33.6911C21.6049 33.0622 20.2455 33.0622 19.0674 33.6911L0.942383 44.0231C-0.145117 44.6521 -0.870117 45.82 -0.870117 47.1677V67.8321C-0.870117 69.0899 -0.145117 70.3477 0.942383 70.9766L19.0674 81.3087C20.1549 81.9376 21.5143 81.9376 22.6924 81.3087L40.8174 70.9766C41.9049 70.3477 42.6299 69.1797 42.6299 67.8321V47.1677C42.6299 45.9098 41.9049 44.6521 40.8174 44.0231Z" fill="#B0A0DF"/>
</g>
<defs>
<clipPath id="clip0_401_881">
<rect width="116" height="115" fill="white"/>
</clipPath>
</defs>
</svg>
