<svg width="134" height="134" viewBox="0 0 134 134" fill="none" xmlns="http://www.w3.org/2000/svg">
<g id="np_search_3469024_000000 1">
<g id="Group">
<path id="Vector" d="M62.5001 20.8333C51.4479 20.8333 40.8494 25.224 33.0361 33.0364C25.2227 40.8488 20.833 51.4484 20.833 62.5004C20.833 73.5524 25.2237 84.1511 33.0361 91.9644C40.8485 99.7777 51.4481 104.167 62.5001 104.167C73.5521 104.167 84.1507 99.7768 91.9641 91.9644C99.7774 84.152 104.167 73.5524 104.167 62.5004C104.157 51.4535 99.7609 40.8644 91.9483 33.0524C84.1358 25.2399 73.5467 20.8439 62.5001 20.8333ZM62.5001 100C52.5522 100 43.0161 96.047 35.9841 89.0156C28.9529 81.9844 24.9997 72.4476 24.9997 62.4996C24.9997 52.5516 28.9527 43.0156 35.9841 35.9836C43.0153 28.9524 52.5521 24.9992 62.5001 24.9992C72.4481 24.9992 81.9841 28.9523 89.0161 35.9836C96.0473 43.0148 100 52.5516 100 62.4996C99.9901 72.4423 96.0317 81.9729 89.0057 89.0049C81.9745 96.0309 72.4427 99.9896 62.5001 100Z" fill="#B0A0DF"/>
<path id="Vector_2" d="M126.875 112.151L104.427 89.692C113.494 75.728 115.025 58.176 108.52 42.848C102.015 27.5253 88.3229 16.436 71.9789 13.26C55.6403 10.0829 38.7856 15.234 27.0149 27.0053C15.2443 38.7767 10.0883 55.6307 13.2656 71.9693C16.4375 88.3133 27.5256 102.011 42.8496 108.516C58.1723 115.021 75.7243 113.49 89.6883 104.427L112.152 126.875C116.256 130.709 122.657 130.599 126.631 126.631C130.6 122.657 130.709 116.256 126.876 112.152L126.875 112.151ZM16.6665 62.5C16.6665 50.3437 21.4947 38.688 30.0879 30.088C38.6868 21.4943 50.3425 16.6667 62.4999 16.6667C74.6572 16.6667 86.3119 21.4948 94.9119 30.088C103.506 38.6869 108.333 50.3427 108.333 62.5C108.333 74.6573 103.505 86.312 94.9119 94.912C86.3129 103.506 74.6572 108.333 62.4999 108.333C50.3488 108.318 38.6972 103.484 30.1039 94.896C21.5153 86.3023 16.6825 74.6507 16.6665 62.5ZM123.921 123.921C121.452 126.281 117.567 126.281 115.098 123.921L93.1249 101.973C96.4323 99.4056 99.4061 96.4317 101.974 93.1244L123.922 115.098C126.354 117.535 126.353 121.484 123.921 123.921Z" fill="#B0A0DF"/>
<path id="Vector_3" d="M60.416 4.16667H64.5827V8.33334H60.416V4.16667Z" fill="#B0A0DF"/>
<path id="Vector_4" d="M45.3906 6.69267L49.4166 5.61455L50.4947 9.64055L46.4687 10.7187L45.3906 6.69267Z" fill="#B0A0DF"/>
<path id="Vector_5" d="M31.5303 13.0208L35.1396 10.9375L37.2229 14.5468L33.6136 16.6301L31.5303 13.0208Z" fill="#B0A0DF"/>
<path id="Vector_6" d="M19.7812 22.724L22.7291 19.7761L25.677 22.724L22.7291 25.6719L19.7812 22.724Z" fill="#B0A0DF"/>
<path id="Vector_7" d="M10.9375 35.136L13.0208 31.5267L16.6302 33.61L14.5468 37.2193L10.9375 35.136Z" fill="#B0A0DF"/>
<path id="Vector_8" d="M5.61426 49.412L6.69238 45.386L10.7184 46.4641L9.64026 50.4901L5.61426 49.412Z" fill="#B0A0DF"/>
<path id="Vector_9" d="M4.1665 60.416H8.33317V64.5827H4.1665V60.416Z" fill="#B0A0DF"/>
<path id="Vector_10" d="M5.61426 75.584L9.64026 74.5059L10.7184 78.5319L6.69238 79.61L5.61426 75.584Z" fill="#B0A0DF"/>
<path id="Vector_11" d="M10.9424 89.864L14.5517 87.7807L16.635 91.39L13.0257 93.4733L10.9424 89.864Z" fill="#B0A0DF"/>
<path id="Vector_12" d="M19.7812 102.276L22.7291 99.3281L25.677 102.276L22.7291 105.224L19.7812 102.276Z" fill="#B0A0DF"/>
<path id="Vector_13" d="M31.5264 111.979L33.6097 108.369L37.219 110.453L35.1357 114.062L31.5264 111.979Z" fill="#B0A0DF"/>
<path id="Vector_14" d="M45.3906 118.307L46.4687 114.281L50.4947 115.359L49.4166 119.385L45.3906 118.307Z" fill="#B0A0DF"/>
<path id="Vector_15" d="M60.416 116.667H64.5827V120.833H60.416V116.667Z" fill="#B0A0DF"/>
<path id="Vector_16" d="M74.5054 115.36L78.5314 114.282L79.6095 118.308L75.5835 119.386L74.5054 115.36Z" fill="#B0A0DF"/>
<path id="Vector_17" d="M87.7812 110.453L91.3906 108.37L93.4739 111.979L89.8646 114.063L87.7812 110.453Z" fill="#B0A0DF"/>
<path id="Vector_18" d="M108.369 91.3907L110.452 87.7813L114.062 89.8647L111.978 93.474L108.369 91.3907Z" fill="#B0A0DF"/>
<path id="Vector_19" d="M114.281 78.5307L115.359 74.5047L119.385 75.5828L118.307 79.6088L114.281 78.5307Z" fill="#B0A0DF"/>
<path id="Vector_20" d="M116.667 60.416H120.833V64.5827H116.667V60.416Z" fill="#B0A0DF"/>
<path id="Vector_21" d="M114.281 46.4693L118.307 45.3912L119.385 49.4172L115.359 50.4953L114.281 46.4693Z" fill="#B0A0DF"/>
<path id="Vector_22" d="M108.369 33.6093L111.978 31.526L114.062 35.1353L110.452 37.2187L108.369 33.6093Z" fill="#B0A0DF"/>
<path id="Vector_23" d="M99.3276 22.724L102.276 19.7761L105.223 22.724L102.276 25.6719L99.3276 22.724Z" fill="#B0A0DF"/>
<path id="Vector_24" d="M87.7759 14.5467L89.8592 10.9373L93.4685 13.0207L91.3852 16.63L87.7759 14.5467Z" fill="#B0A0DF"/>
<path id="Vector_25" d="M74.5107 9.64067L75.5889 5.61467L79.6149 6.69279L78.5367 10.7188L74.5107 9.64067Z" fill="#B0A0DF"/>
<path id="Vector_26" d="M91.317 59.26L87.4993 53.5412V45.8329C87.4993 45.2809 87.2806 44.7496 86.8899 44.3589L82.7233 40.1923C82.3326 39.8016 81.8014 39.5829 81.2492 39.5829H76.4992L74.8899 34.76C74.6087 33.9058 73.8118 33.3329 72.9159 33.3329H66.6659C66.1138 33.3329 65.5826 33.5516 65.1919 33.9423L62.4993 36.6349L59.8066 33.9423C59.416 33.5516 58.8847 33.3329 58.3326 33.3329H52.0826C51.1867 33.3329 50.3899 33.9058 50.1086 34.76L48.4993 39.5829H43.7493C43.1972 39.5829 42.6659 39.8016 42.2753 40.1923L38.1086 44.3589C37.718 44.7496 37.4992 45.2808 37.4992 45.8329V53.5412L33.6815 59.2652C33.4575 59.609 33.3325 60.0048 33.3325 60.4162V70.8329C33.3325 71.385 33.5513 71.9162 33.9419 72.3069L39.5826 77.9476V81.2497C39.5826 82.208 40.2336 83.0414 41.1607 83.2705L48.3847 85.0778L50.1087 90.2445V90.2393C50.3899 91.0935 51.1868 91.6664 52.0827 91.6664H58.3327C58.8848 91.6664 59.416 91.4476 59.8067 91.057L62.4994 88.3643L65.192 91.057C65.5827 91.4476 66.1139 91.6664 66.666 91.6664H72.916C73.8119 91.6664 74.6087 91.0935 74.89 90.2393L76.614 85.0726L83.838 83.2653V83.2705C84.7651 83.0413 85.4162 82.208 85.4162 81.2497V77.9476L91.0568 72.3069C91.4475 71.9163 91.6662 71.385 91.6662 70.8329V60.4162C91.6662 60.0048 91.5462 59.6038 91.317 59.26ZM57.4677 87.5H53.5822L52.3791 83.8959L55.6343 80.6407H55.6395C56.0301 80.25 56.2489 79.7188 56.2489 79.1667V77.0833H52.0822V78.3021L49.3582 81.0261L43.7489 79.625V68.7501H39.5822V72.0522L37.4989 69.9689V61.0418L39.9052 57.4325L41.6656 59.1929V60.4168H45.8322V58.3335C45.8322 57.7814 45.6135 57.2502 45.2228 56.8595L41.6655 53.3022V46.698L44.6134 43.7502H49.1394L52.0821 46.698V47.9168H56.2487V45.8335C56.2487 45.2814 56.03 44.7501 55.6393 44.3595L52.3841 41.1043L53.5821 37.5001H57.4675L60.4154 40.448V84.552L57.4677 87.5ZM87.4984 69.9693L85.415 72.0527V68.7505H81.2484V79.6255L75.639 81.0317L72.915 78.3025V77.0838H68.7484V79.1671C68.7484 79.7192 68.9671 80.2505 69.3577 80.6411L72.6129 83.8963L71.415 87.5005H67.5295L64.5817 84.5526V40.4486L67.5295 37.5007H71.415L72.6181 41.1049L69.3629 44.3601H69.3577C68.9671 44.7507 68.7484 45.2819 68.7484 45.8341V47.9174H72.915V46.6986L75.8629 43.7508H80.3889L83.3316 46.6986V53.308L79.7742 56.8653V56.8601C79.3836 57.2507 79.1648 57.782 79.1648 58.3341V60.4174H83.3315V59.1987L85.0919 57.4383L87.4982 61.0424L87.4984 69.9693Z" fill="#B0A0DF"/>
<path id="Vector_27" d="M76.473 61.0267L72.9157 57.4693V52.0839H68.749V58.3339C68.749 58.886 68.9678 59.4172 69.3584 59.8079L73.5251 63.9745L76.473 61.0267Z" fill="#B0A0DF"/>
<path id="Vector_28" d="M74.3907 67.276L71.4429 70.2239L72.9169 71.6979V75H77.0835V70.8333C77.0835 70.2813 76.8648 69.75 76.4742 69.3593L74.3907 67.276Z" fill="#B0A0DF"/>
<path id="Vector_29" d="M52.0827 57.4693L48.5254 61.0267L51.4733 63.9745L55.6399 59.8079C56.0306 59.4173 56.2493 58.886 56.2493 58.3339V52.0839H52.0826L52.0827 57.4693Z" fill="#B0A0DF"/>
<path id="Vector_30" d="M48.5264 69.36C48.1357 69.7506 47.917 70.2819 47.917 70.834V75.0007H52.0837V71.6985L53.5577 70.2245L50.6098 67.2767L48.5264 69.36Z" fill="#B0A0DF"/>
</g>
</g>
</svg>
