<svg width="48" height="48" viewBox="0 0 48 48" fill="none" xmlns="http://www.w3.org/2000/svg">
<g clip-path="url(#clip0_8_197)">
<path d="M13.1251 18.3749H16.1251V33.3749H13.1251V18.3749Z" fill="#B0A0DF"/>
<path d="M13.1251 11.6251H16.1251V14.6251H13.1251V11.6251Z" fill="#B0A0DF"/>
<path d="M23.6251 27.7497V25.8747C23.6251 23.5872 25.4626 21.7497 27.7501 21.7497C30.0377 21.7497 31.8752 23.5872 31.8752 25.8747V33.3747H34.8752V25.8747C34.8752 21.9372 31.6877 18.7496 27.75 18.7496C26.2126 18.7496 24.7875 19.2371 23.625 20.0621V18.3746H20.625V33.3746H23.625L23.6251 27.7497Z" fill="#B0A0DF"/>
<path d="M47.6251 0.375H0.374878V47.6252H47.6251V0.375ZM44.6251 44.6252H3.37488V3.375H44.6251V44.6252Z" fill="#B0A0DF"/>
</g>
<defs>
<clipPath id="clip0_8_197">
<rect width="48" height="48" fill="white"/>
</clipPath>
</defs>
</svg>
