<svg width="48" height="48" viewBox="0 0 48 48" fill="none" xmlns="http://www.w3.org/2000/svg">
<g clip-path="url(#clip0_8_157)">
<path d="M24 47.4955C23.2125 47.4955 22.4156 47.4561 21.6319 47.3774L20.4281 47.2555L21.3619 46.4849C22.7512 45.313 23.9944 43.9798 25.0688 42.5118C26.4788 40.6349 27.4837 39.538 28.2319 39.0599C28.5431 38.8424 28.9181 38.7318 29.3006 38.7449C29.4394 38.7449 29.595 38.7524 29.775 38.7618C29.9775 38.773 30.2081 38.7861 30.4613 38.7861C31.0857 38.7861 31.7082 38.7036 32.31 38.5386C34.62 37.9199 36.2419 37.2561 36.6544 36.028C37.0238 34.9274 36.2644 33.9486 35.5275 33.0036C35.2407 32.6361 34.9463 32.2536 34.68 31.8411C34.4625 31.5036 33.8026 30.4723 34.5132 29.8292C35.1976 29.2086 36.4801 29.1599 36.8569 29.1599L36.8588 29.158C37.5376 29.1261 38.2088 29.293 38.7938 29.638C41.2388 31.558 43.065 32.4824 45.0957 32.833L45.735 32.9436L45.4707 33.5361C43.62 37.6855 40.6087 41.2123 36.799 43.6891C32.989 46.166 28.5451 47.488 24 47.4955ZM17.6213 46.6143C15.6863 46.0668 13.8301 45.2718 12.0974 44.2499L11.5818 43.9461L11.9681 43.4905C12.9712 42.3074 13.2937 41.2855 12.9262 40.4586C12.1518 38.7186 13.4531 37.1343 15.525 34.9161V34.918C16.3181 34.1361 17.0231 33.2717 17.6268 32.3361C18.2906 31.1792 18.3094 30.1292 17.6868 29.2123C16.6987 27.8811 15.3018 26.9098 13.7081 26.4486C12.8625 26.1767 11.9793 26.0361 11.0906 26.0323C10.275 26.0248 9.4631 26.1636 8.69621 26.4411C7.54497 26.8892 6.32433 27.1273 5.09059 27.1461C3.6562 27.0992 2.24246 26.8011 0.9131 26.263L0.601849 26.1543L0.577474 25.8261C0.528725 25.2205 0.504351 24.6055 0.504351 23.9999C0.502476 19.6236 1.72874 15.3316 4.04248 11.6173L4.3631 11.1036L4.80936 11.5086C5.65497 12.2586 6.6731 12.7855 7.77187 13.0442C9.0731 13.3798 9.80813 14.9979 10.5844 16.7079C11.5706 18.8792 12.6825 21.3373 15.345 21.7763C15.9863 21.8906 16.635 21.9506 17.2857 21.9581C19.7588 21.9581 20.5519 20.8069 21.6413 18.93H21.6394C22.0219 18.2494 22.4382 17.5912 22.8882 16.9537C23.025 16.7625 23.1582 16.5769 23.2875 16.395L23.2932 16.3875C24.4594 14.7468 25.0725 13.9706 25.6632 13.9331H25.7007C26.2257 13.9331 27.0356 14.5125 28.0444 15.6056C29.7038 17.4094 31.3613 19.0294 33.347 19.0294C33.4089 19.0294 33.4707 19.0294 33.5326 19.0256C34.937 18.9562 36.2532 18.0806 37.5526 16.35H37.5545C38.2407 15.5119 38.4826 14.3962 38.207 13.35C37.9389 12.5362 37.5376 11.7731 37.0163 11.0925C36.5438 10.3988 36.0957 9.74437 36.0732 9.1725C36.0489 8.58373 36.5326 7.9556 37.5526 7.2525C37.7664 7.10625 38.2332 6.73314 38.7714 6.28314L39.1014 6.00564L39.4257 6.28877C42.8364 9.25502 45.3168 13.1417 46.5734 17.4843C47.8278 21.8268 47.8016 26.4392 46.4984 30.7668L46.3766 31.1718L45.9584 31.125C43.9466 30.8981 42.3659 30.135 39.9133 28.2112L39.9152 28.2094C38.9945 27.6 37.9052 27.2962 36.8027 27.3431C35.5352 27.2887 34.2902 27.6937 33.2964 28.485C32.7433 28.9706 32.4133 29.6625 32.3795 30.3994C32.3833 31.2675 32.6533 32.1112 33.1558 32.82C33.4633 33.3019 33.8008 33.7331 34.0951 34.1156L34.097 34.1137C34.3408 34.4194 34.5695 34.7362 34.7814 35.0644L35.0251 35.475L34.6276 35.7413C33.7558 36.2287 32.8164 36.5813 31.8414 36.7894C31.3914 36.9131 30.9283 36.975 30.4633 36.975C30.2589 36.975 30.062 36.9638 29.8726 36.9544C29.6832 36.945 29.5182 36.9394 29.372 36.9394C27.722 36.9394 26.5013 37.5863 23.6177 41.4263C21.7934 43.8544 19.9559 45.54 17.9945 46.5805L17.8164 46.6743L17.6213 46.6143ZM9.68832 42.6205V42.6187C5.29709 39.2418 2.23728 34.4251 1.0464 29.0154L0.864524 28.1829L1.68201 28.4248C2.78452 28.7698 3.93201 28.9498 5.08891 28.9592C6.53827 28.9442 7.97265 28.6667 9.32453 28.1436C9.88329 27.9448 10.472 27.8473 11.0627 27.8548C13.1289 27.8548 15.2345 28.8317 16.1852 30.2304C16.669 30.943 15.7577 32.0061 14.2015 33.673C12.3471 35.6567 10.039 38.1279 11.1996 41.0227L11.2746 41.2121L11.1977 41.4015C10.9858 41.8308 10.7046 42.2246 10.3652 42.5621L10.0521 42.8977L9.68832 42.6205ZM17.28 20.1469C16.7306 20.1375 16.1831 20.085 15.6412 19.9875C14.0494 19.725 13.2937 18.2907 12.2362 15.9619C11.3174 13.9369 10.3669 11.8444 8.2237 11.2913L8.22557 11.2894C7.28621 11.0757 6.42932 10.5957 5.75996 9.9038L5.45996 9.58317L5.73745 9.24192L5.73558 9.24005C9.23056 4.91631 14.1433 1.96901 19.6052 0.920688L19.8471 0.873813L20.0327 1.03694C20.3814 1.34256 20.6739 1.59004 20.9102 1.78694H20.9083C21.7933 2.47694 22.5527 3.31506 23.1489 4.2657C23.7283 5.1226 24.662 5.67383 25.6915 5.76383C25.7983 5.77321 25.9108 5.77883 26.0215 5.77883C27.2215 5.75258 28.3615 5.25381 29.1977 4.39134C29.6046 3.98072 29.9627 3.57573 30.304 3.18386C30.6546 2.76761 31.024 2.37011 31.4158 1.99134L31.6408 1.78134L31.9296 1.88634C33.7446 2.53886 35.4733 3.4126 37.0747 4.48886L37.641 4.86948L37.1122 5.29886C36.8366 5.52198 36.621 5.69073 36.5197 5.76011C34.9447 6.84572 34.2041 7.9876 34.2584 9.25134C34.3034 10.3388 34.9203 11.2426 35.5166 12.1164C36.5141 13.577 36.8459 14.2707 36.1016 15.2589C35.1585 16.5133 34.2641 17.1714 33.441 17.2126H33.3547C32.0966 17.2126 30.7559 15.8701 29.3778 14.3739C28.4103 13.322 27.1166 12.1145 25.7047 12.1145C25.6541 12.1145 25.5997 12.1145 25.5472 12.1182C24.0284 12.2139 23.0497 13.592 21.8122 15.3339L21.7935 15.3582C21.6716 15.5307 21.5441 15.7089 21.4129 15.8907L21.4147 15.8926C20.931 16.5789 20.481 17.2876 20.0703 18.0189C19.551 18.9151 19.176 19.562 18.6453 19.8676L18.6434 19.8658C18.2216 20.0758 17.7509 20.1714 17.2803 20.1451L17.28 20.1469ZM26.0251 3.96564C25.967 3.96564 25.9089 3.96377 25.8508 3.95814C25.3576 3.91689 24.9095 3.64877 24.6395 3.23253C24.2008 2.57065 23.7058 1.94627 23.1602 1.36878L22.3389 0.53627L23.5089 0.511895C23.6721 0.508145 23.8352 0.50627 24.0002 0.50627V0.504395C25.6127 0.50627 27.2214 0.671271 28.8002 0.999371L29.6458 1.17562L28.937 1.98749C28.6108 2.36062 28.277 2.74498 27.9133 3.10685L27.9114 3.10873C27.4164 3.62622 26.7414 3.93377 26.0251 3.96564Z" fill="#B0A0DF"/>
</g>
<defs>
<clipPath id="clip0_8_157">
<rect width="48" height="48" fill="white"/>
</clipPath>
</defs>
</svg>
